G04*
G04 #@! TF.GenerationSoftware,Altium Limited,Altium Designer,22.11.1 (43)*
G04*
G04 Layer_Color=8388736*
%FSLAX44Y44*%
%MOMM*%
G71*
G04*
G04 #@! TF.SameCoordinates,DB873E63-77BF-45AF-8D19-C352679DEADA*
G04*
G04*
G04 #@! TF.FilePolarity,Positive*
G04*
G01*
G75*
%ADD10C,0.1270*%
%ADD11C,0.2540*%
%ADD12C,0.2000*%
%ADD13C,0.7620*%
%ADD14C,0.1778*%
D10*
X1895000Y-948810D02*
Y-667260D01*
Y-870070D02*
X2885600D01*
X2009300D02*
Y-717670D01*
X1895000Y-755770D02*
X2415700D01*
X1895000Y-793870D02*
X2415700D01*
X1895000Y-831970D02*
X2886200D01*
X2415700Y-832360D02*
Y-666870D01*
X1895000Y-717670D02*
X2885600D01*
X1895000Y-666870D02*
X2885600D01*
X1895270Y-908270D02*
X2885870D01*
X2251870Y-870070D02*
Y-717670D01*
X2538890Y-949200D02*
Y-870206D01*
X2709070Y-908306D02*
Y-870206D01*
X1460625Y1768600D02*
Y1819400D01*
X-15750Y1768600D02*
Y1819400D01*
X2444875Y-1000000D02*
Y-949200D01*
X1952750Y-1000000D02*
Y-949200D01*
X1460625Y-1000000D02*
Y-949200D01*
X968500Y-1000000D02*
Y-949200D01*
X476375Y-1000000D02*
Y-949200D01*
X-15750Y-1000000D02*
Y-949200D01*
X-507875Y-1000000D02*
Y-949200D01*
X-1000000Y-405640D02*
X-949200D01*
X-1000000Y137920D02*
X-949200D01*
X-1000000Y681480D02*
X-949200D01*
X2444875Y1768600D02*
Y1819400D01*
X1952750Y1768600D02*
Y1819400D01*
X968500Y1768600D02*
Y1819400D01*
X476375Y1768600D02*
Y1819400D01*
X-507875Y1768600D02*
Y1819400D01*
X-949200Y1768600D02*
X2886200D01*
Y-949200D02*
Y1768600D01*
X-949200Y-949200D02*
X2886200D01*
X-949200D02*
Y1768600D01*
X-1000000Y1819400D02*
X2937000D01*
Y-1000000D02*
Y1819400D01*
X-1000000Y-1000000D02*
X2937000D01*
X-1000000D02*
Y1819400D01*
Y1225040D02*
X-949200D01*
X2886200D02*
X2937000D01*
X2886200Y681480D02*
X2937000D01*
X2886200Y137920D02*
X2937000D01*
X2886200Y-405640D02*
X2937000D01*
X2277449Y-847696D02*
X2276845Y-846487D01*
X2275636Y-845277D01*
X2274426Y-844673D01*
X2272008D01*
X2270798Y-845277D01*
X2269589Y-846487D01*
X2268985Y-847696D01*
X2268380Y-849510D01*
Y-852533D01*
X2268985Y-854347D01*
X2269589Y-855556D01*
X2270798Y-856765D01*
X2272008Y-857370D01*
X2274426D01*
X2275636Y-856765D01*
X2276845Y-855556D01*
X2277449Y-854347D01*
X2281017Y-844673D02*
Y-857370D01*
Y-851324D02*
X2282831Y-849510D01*
X2284040Y-848905D01*
X2285854D01*
X2287063Y-849510D01*
X2287668Y-851324D01*
Y-857370D01*
X2298249Y-848905D02*
Y-857370D01*
Y-850719D02*
X2297040Y-849510D01*
X2295830Y-848905D01*
X2294016D01*
X2292807Y-849510D01*
X2291598Y-850719D01*
X2290993Y-852533D01*
Y-853742D01*
X2291598Y-855556D01*
X2292807Y-856765D01*
X2294016Y-857370D01*
X2295830D01*
X2297040Y-856765D01*
X2298249Y-855556D01*
X2301635Y-848905D02*
Y-857370D01*
Y-851324D02*
X2303449Y-849510D01*
X2304658Y-848905D01*
X2306472D01*
X2307681Y-849510D01*
X2308286Y-851324D01*
Y-857370D01*
X2318867Y-848905D02*
Y-858579D01*
X2318262Y-860393D01*
X2317657Y-860998D01*
X2316448Y-861602D01*
X2314634D01*
X2313425Y-860998D01*
X2318867Y-850719D02*
X2317657Y-849510D01*
X2316448Y-848905D01*
X2314634D01*
X2313425Y-849510D01*
X2312216Y-850719D01*
X2311611Y-852533D01*
Y-853742D01*
X2312216Y-855556D01*
X2313425Y-856765D01*
X2314634Y-857370D01*
X2316448D01*
X2317657Y-856765D01*
X2318867Y-855556D01*
X2322253Y-852533D02*
X2329508D01*
Y-851324D01*
X2328904Y-850114D01*
X2328299Y-849510D01*
X2327090Y-848905D01*
X2325276D01*
X2324067Y-849510D01*
X2322857Y-850719D01*
X2322253Y-852533D01*
Y-853742D01*
X2322857Y-855556D01*
X2324067Y-856765D01*
X2325276Y-857370D01*
X2327090D01*
X2328299Y-856765D01*
X2329508Y-855556D01*
X2349461Y-844673D02*
Y-857370D01*
Y-850719D02*
X2348252Y-849510D01*
X2347043Y-848905D01*
X2345229D01*
X2344019Y-849510D01*
X2342810Y-850719D01*
X2342206Y-852533D01*
Y-853742D01*
X2342810Y-855556D01*
X2344019Y-856765D01*
X2345229Y-857370D01*
X2347043D01*
X2348252Y-856765D01*
X2349461Y-855556D01*
X2352847Y-852533D02*
X2360103D01*
Y-851324D01*
X2359498Y-850114D01*
X2358893Y-849510D01*
X2357684Y-848905D01*
X2355870D01*
X2354661Y-849510D01*
X2353452Y-850719D01*
X2352847Y-852533D01*
Y-853742D01*
X2353452Y-855556D01*
X2354661Y-856765D01*
X2355870Y-857370D01*
X2357684D01*
X2358893Y-856765D01*
X2360103Y-855556D01*
X2369474Y-850719D02*
X2368870Y-849510D01*
X2367056Y-848905D01*
X2365242D01*
X2363428Y-849510D01*
X2362824Y-850719D01*
X2363428Y-851928D01*
X2364637Y-852533D01*
X2367661Y-853138D01*
X2368870Y-853742D01*
X2369474Y-854951D01*
Y-855556D01*
X2368870Y-856765D01*
X2367056Y-857370D01*
X2365242D01*
X2363428Y-856765D01*
X2362824Y-855556D01*
X2379391Y-850719D02*
X2378181Y-849510D01*
X2376972Y-848905D01*
X2375158D01*
X2373949Y-849510D01*
X2372740Y-850719D01*
X2372135Y-852533D01*
Y-853742D01*
X2372740Y-855556D01*
X2373949Y-856765D01*
X2375158Y-857370D01*
X2376972D01*
X2378181Y-856765D01*
X2379391Y-855556D01*
X2382111Y-848905D02*
Y-857370D01*
Y-852533D02*
X2382716Y-850719D01*
X2383925Y-849510D01*
X2385134Y-848905D01*
X2386948D01*
X2389306Y-844673D02*
X2389911Y-845277D01*
X2390516Y-844673D01*
X2389911Y-844068D01*
X2389306Y-844673D01*
X2389911Y-848905D02*
Y-857370D01*
X2392753Y-848905D02*
Y-861602D01*
Y-850719D02*
X2393962Y-849510D01*
X2395171Y-848905D01*
X2396985D01*
X2398195Y-849510D01*
X2399404Y-850719D01*
X2400009Y-852533D01*
Y-853742D01*
X2399404Y-855556D01*
X2398195Y-856765D01*
X2396985Y-857370D01*
X2395171D01*
X2393962Y-856765D01*
X2392753Y-855556D01*
X2404543Y-844673D02*
Y-854951D01*
X2405148Y-856765D01*
X2406357Y-857370D01*
X2407566D01*
X2402729Y-848905D02*
X2406962D01*
X2410589Y-844673D02*
X2411194Y-845277D01*
X2411799Y-844673D01*
X2411194Y-844068D01*
X2410589Y-844673D01*
X2411194Y-848905D02*
Y-857370D01*
X2417059Y-848905D02*
X2415850Y-849510D01*
X2414641Y-850719D01*
X2414036Y-852533D01*
Y-853742D01*
X2414641Y-855556D01*
X2415850Y-856765D01*
X2417059Y-857370D01*
X2418873D01*
X2420082Y-856765D01*
X2421292Y-855556D01*
X2421896Y-853742D01*
Y-852533D01*
X2421292Y-850719D01*
X2420082Y-849510D01*
X2418873Y-848905D01*
X2417059D01*
X2424677D02*
Y-857370D01*
Y-851324D02*
X2426491Y-849510D01*
X2427701Y-848905D01*
X2429514D01*
X2430724Y-849510D01*
X2431328Y-851324D01*
Y-857370D01*
X2435258Y-848905D02*
X2434654Y-849510D01*
X2435258Y-850114D01*
X2435863Y-849510D01*
X2435258Y-848905D01*
Y-856161D02*
X2434654Y-856765D01*
X2435258Y-857370D01*
X2435863Y-856765D01*
X2435258Y-856161D01*
X2448621Y-851928D02*
X2459504D01*
X2267710Y-770133D02*
Y-782830D01*
Y-770133D02*
X2273152D01*
X2274966Y-770737D01*
X2275570Y-771342D01*
X2276175Y-772551D01*
Y-773761D01*
X2275570Y-774970D01*
X2274966Y-775574D01*
X2273152Y-776179D01*
X2267710D01*
X2271942D02*
X2276175Y-782830D01*
X2279017Y-777993D02*
X2286272D01*
Y-776784D01*
X2285668Y-775574D01*
X2285063Y-774970D01*
X2283854Y-774365D01*
X2282040D01*
X2280831Y-774970D01*
X2279621Y-776179D01*
X2279017Y-777993D01*
Y-779202D01*
X2279621Y-781016D01*
X2280831Y-782225D01*
X2282040Y-782830D01*
X2283854D01*
X2285063Y-782225D01*
X2286272Y-781016D01*
X2288993Y-774365D02*
X2292621Y-782830D01*
X2296249Y-774365D02*
X2292621Y-782830D01*
X2299514Y-770133D02*
X2300118Y-770737D01*
X2300723Y-770133D01*
X2300118Y-769528D01*
X2299514Y-770133D01*
X2300118Y-774365D02*
Y-782830D01*
X2309611Y-776179D02*
X2309006Y-774970D01*
X2307193Y-774365D01*
X2305379D01*
X2303565Y-774970D01*
X2302960Y-776179D01*
X2303565Y-777388D01*
X2304774Y-777993D01*
X2307797Y-778598D01*
X2309006Y-779202D01*
X2309611Y-780412D01*
Y-781016D01*
X2309006Y-782225D01*
X2307193Y-782830D01*
X2305379D01*
X2303565Y-782225D01*
X2302960Y-781016D01*
X2313481Y-770133D02*
X2314085Y-770737D01*
X2314690Y-770133D01*
X2314085Y-769528D01*
X2313481Y-770133D01*
X2314085Y-774365D02*
Y-782830D01*
X2319950Y-774365D02*
X2318741Y-774970D01*
X2317532Y-776179D01*
X2316927Y-777993D01*
Y-779202D01*
X2317532Y-781016D01*
X2318741Y-782225D01*
X2319950Y-782830D01*
X2321764D01*
X2322973Y-782225D01*
X2324183Y-781016D01*
X2324787Y-779202D01*
Y-777993D01*
X2324183Y-776179D01*
X2322973Y-774970D01*
X2321764Y-774365D01*
X2319950D01*
X2327569D02*
Y-782830D01*
Y-776784D02*
X2329382Y-774970D01*
X2330592Y-774365D01*
X2332406D01*
X2333615Y-774970D01*
X2334220Y-776784D01*
Y-782830D01*
X2338150Y-774365D02*
X2337545Y-774970D01*
X2338150Y-775574D01*
X2338754Y-774970D01*
X2338150Y-774365D01*
Y-781621D02*
X2337545Y-782225D01*
X2338150Y-782830D01*
X2338754Y-782225D01*
X2338150Y-781621D01*
X2361186Y-782830D02*
X2356349Y-770133D01*
X2351512Y-782830D01*
X2353326Y-778598D02*
X2359372D01*
X2367777Y-770133D02*
X2365963Y-770737D01*
X2364754Y-772551D01*
X2364149Y-775574D01*
Y-777388D01*
X2364754Y-780412D01*
X2365963Y-782225D01*
X2367777Y-782830D01*
X2368986D01*
X2370800Y-782225D01*
X2372009Y-780412D01*
X2372614Y-777388D01*
Y-775574D01*
X2372009Y-772551D01*
X2370800Y-770737D01*
X2368986Y-770133D01*
X2367777D01*
X2736340Y-888544D02*
X2741782D01*
X2743596Y-887939D01*
X2744200Y-887334D01*
X2744805Y-886125D01*
Y-884311D01*
X2744200Y-883102D01*
X2743596Y-882497D01*
X2741782Y-881893D01*
X2736340D01*
Y-894590D01*
X2754902Y-886125D02*
Y-894590D01*
Y-887939D02*
X2753693Y-886730D01*
X2752484Y-886125D01*
X2750670D01*
X2749460Y-886730D01*
X2748251Y-887939D01*
X2747646Y-889753D01*
Y-890962D01*
X2748251Y-892776D01*
X2749460Y-893985D01*
X2750670Y-894590D01*
X2752484D01*
X2753693Y-893985D01*
X2754902Y-892776D01*
X2765544Y-886125D02*
Y-895799D01*
X2764939Y-897613D01*
X2764334Y-898218D01*
X2763125Y-898822D01*
X2761311D01*
X2760102Y-898218D01*
X2765544Y-887939D02*
X2764334Y-886730D01*
X2763125Y-886125D01*
X2761311D01*
X2760102Y-886730D01*
X2758893Y-887939D01*
X2758288Y-889753D01*
Y-890962D01*
X2758893Y-892776D01*
X2760102Y-893985D01*
X2761311Y-894590D01*
X2763125D01*
X2764334Y-893985D01*
X2765544Y-892776D01*
X2768930Y-889753D02*
X2776185D01*
Y-888544D01*
X2775581Y-887334D01*
X2774976Y-886730D01*
X2773767Y-886125D01*
X2771953D01*
X2770744Y-886730D01*
X2769534Y-887939D01*
X2768930Y-889753D01*
Y-890962D01*
X2769534Y-892776D01*
X2770744Y-893985D01*
X2771953Y-894590D01*
X2773767D01*
X2774976Y-893985D01*
X2776185Y-892776D01*
X2779511Y-886125D02*
X2778906Y-886730D01*
X2779511Y-887334D01*
X2780115Y-886730D01*
X2779511Y-886125D01*
Y-893381D02*
X2778906Y-893985D01*
X2779511Y-894590D01*
X2780115Y-893985D01*
X2779511Y-893381D01*
X2792873Y-884311D02*
X2794082Y-883707D01*
X2795896Y-881893D01*
Y-894590D01*
X2812161Y-886125D02*
X2815789Y-894590D01*
X2819417Y-886125D02*
X2815789Y-894590D01*
X2824496Y-886125D02*
X2823286Y-886730D01*
X2822077Y-887939D01*
X2821472Y-889753D01*
Y-890962D01*
X2822077Y-892776D01*
X2823286Y-893985D01*
X2824496Y-894590D01*
X2826309D01*
X2827519Y-893985D01*
X2828728Y-892776D01*
X2829333Y-890962D01*
Y-889753D01*
X2828728Y-887939D01*
X2827519Y-886730D01*
X2826309Y-886125D01*
X2824496D01*
X2832114D02*
Y-894590D01*
Y-888544D02*
X2833928Y-886730D01*
X2835137Y-886125D01*
X2836951D01*
X2838160Y-886730D01*
X2838765Y-888544D01*
Y-894590D01*
X2852067Y-884311D02*
X2853276Y-883707D01*
X2855090Y-881893D01*
Y-894590D01*
X2267710Y-730763D02*
Y-743460D01*
Y-730763D02*
X2276175Y-743460D01*
Y-730763D02*
Y-743460D01*
X2282705Y-734995D02*
X2281496Y-735600D01*
X2280286Y-736809D01*
X2279682Y-738623D01*
Y-739832D01*
X2280286Y-741646D01*
X2281496Y-742855D01*
X2282705Y-743460D01*
X2284519D01*
X2285728Y-742855D01*
X2286937Y-741646D01*
X2287542Y-739832D01*
Y-738623D01*
X2286937Y-736809D01*
X2285728Y-735600D01*
X2284519Y-734995D01*
X2282705D01*
X2290928Y-742251D02*
X2290323Y-742855D01*
X2290928Y-743460D01*
X2291532Y-742855D01*
X2290928Y-742251D01*
X2294918Y-734995D02*
X2294314Y-735600D01*
X2294918Y-736204D01*
X2295523Y-735600D01*
X2294918Y-734995D01*
Y-742251D02*
X2294314Y-742855D01*
X2294918Y-743460D01*
X2295523Y-742855D01*
X2294918Y-742251D01*
X2308281Y-738018D02*
X2319164D01*
X1922454Y-818000D02*
X1917617Y-805303D01*
X1912780Y-818000D01*
X1914594Y-813768D02*
X1920640D01*
X1925417Y-809535D02*
Y-822232D01*
Y-811349D02*
X1926626Y-810140D01*
X1927835Y-809535D01*
X1929649D01*
X1930858Y-810140D01*
X1932068Y-811349D01*
X1932672Y-813163D01*
Y-814372D01*
X1932068Y-816186D01*
X1930858Y-817395D01*
X1929649Y-818000D01*
X1927835D01*
X1926626Y-817395D01*
X1925417Y-816186D01*
X1935393Y-809535D02*
Y-822232D01*
Y-811349D02*
X1936602Y-810140D01*
X1937812Y-809535D01*
X1939626D01*
X1940835Y-810140D01*
X1942044Y-811349D01*
X1942649Y-813163D01*
Y-814372D01*
X1942044Y-816186D01*
X1940835Y-817395D01*
X1939626Y-818000D01*
X1937812D01*
X1936602Y-817395D01*
X1935393Y-816186D01*
X1945370Y-809535D02*
Y-818000D01*
Y-813163D02*
X1945974Y-811349D01*
X1947184Y-810140D01*
X1948393Y-809535D01*
X1950207D01*
X1954379D02*
X1953169Y-810140D01*
X1951960Y-811349D01*
X1951355Y-813163D01*
Y-814372D01*
X1951960Y-816186D01*
X1953169Y-817395D01*
X1954379Y-818000D01*
X1956193D01*
X1957402Y-817395D01*
X1958611Y-816186D01*
X1959216Y-814372D01*
Y-813163D01*
X1958611Y-811349D01*
X1957402Y-810140D01*
X1956193Y-809535D01*
X1954379D01*
X1961997D02*
X1965625Y-818000D01*
X1969253Y-809535D02*
X1965625Y-818000D01*
X1971308Y-813163D02*
X1978564D01*
Y-811954D01*
X1977959Y-810744D01*
X1977355Y-810140D01*
X1976145Y-809535D01*
X1974332D01*
X1973122Y-810140D01*
X1971913Y-811349D01*
X1971308Y-813163D01*
Y-814372D01*
X1971913Y-816186D01*
X1973122Y-817395D01*
X1974332Y-818000D01*
X1976145D01*
X1977355Y-817395D01*
X1978564Y-816186D01*
X1988540Y-805303D02*
Y-818000D01*
Y-811349D02*
X1987331Y-810140D01*
X1986122Y-809535D01*
X1984308D01*
X1983099Y-810140D01*
X1981889Y-811349D01*
X1981285Y-813163D01*
Y-814372D01*
X1981889Y-816186D01*
X1983099Y-817395D01*
X1984308Y-818000D01*
X1986122D01*
X1987331Y-817395D01*
X1988540Y-816186D01*
X1992531Y-809535D02*
X1991926Y-810140D01*
X1992531Y-810744D01*
X1993136Y-810140D01*
X1992531Y-809535D01*
Y-816791D02*
X1991926Y-817395D01*
X1992531Y-818000D01*
X1993136Y-817395D01*
X1992531Y-816791D01*
X1921850Y-770226D02*
X1921245Y-769017D01*
X1920036Y-767807D01*
X1918826Y-767203D01*
X1916408D01*
X1915199Y-767807D01*
X1913989Y-769017D01*
X1913385Y-770226D01*
X1912780Y-772040D01*
Y-775063D01*
X1913385Y-776877D01*
X1913989Y-778086D01*
X1915199Y-779295D01*
X1916408Y-779900D01*
X1918826D01*
X1920036Y-779295D01*
X1921245Y-778086D01*
X1921850Y-776877D01*
X1925417Y-767203D02*
Y-779900D01*
Y-773854D02*
X1927231Y-772040D01*
X1928440Y-771435D01*
X1930254D01*
X1931463Y-772040D01*
X1932068Y-773854D01*
Y-779900D01*
X1935393Y-775063D02*
X1942649D01*
Y-773854D01*
X1942044Y-772644D01*
X1941440Y-772040D01*
X1940230Y-771435D01*
X1938416D01*
X1937207Y-772040D01*
X1935998Y-773249D01*
X1935393Y-775063D01*
Y-776272D01*
X1935998Y-778086D01*
X1937207Y-779295D01*
X1938416Y-779900D01*
X1940230D01*
X1941440Y-779295D01*
X1942649Y-778086D01*
X1952625Y-773249D02*
X1951416Y-772040D01*
X1950207Y-771435D01*
X1948393D01*
X1947184Y-772040D01*
X1945974Y-773249D01*
X1945370Y-775063D01*
Y-776272D01*
X1945974Y-778086D01*
X1947184Y-779295D01*
X1948393Y-779900D01*
X1950207D01*
X1951416Y-779295D01*
X1952625Y-778086D01*
X1955346Y-767203D02*
Y-779900D01*
X1961392Y-771435D02*
X1955346Y-777482D01*
X1957765Y-775063D02*
X1961997Y-779900D01*
X1963992Y-775063D02*
X1971248D01*
Y-773854D01*
X1970643Y-772644D01*
X1970039Y-772040D01*
X1968829Y-771435D01*
X1967016D01*
X1965806Y-772040D01*
X1964597Y-773249D01*
X1963992Y-775063D01*
Y-776272D01*
X1964597Y-778086D01*
X1965806Y-779295D01*
X1967016Y-779900D01*
X1968829D01*
X1970039Y-779295D01*
X1971248Y-778086D01*
X1981224Y-767203D02*
Y-779900D01*
Y-773249D02*
X1980015Y-772040D01*
X1978806Y-771435D01*
X1976992D01*
X1975783Y-772040D01*
X1974573Y-773249D01*
X1973969Y-775063D01*
Y-776272D01*
X1974573Y-778086D01*
X1975783Y-779295D01*
X1976992Y-779900D01*
X1978806D01*
X1980015Y-779295D01*
X1981224Y-778086D01*
X1985215Y-771435D02*
X1984610Y-772040D01*
X1985215Y-772644D01*
X1985820Y-772040D01*
X1985215Y-771435D01*
Y-778691D02*
X1984610Y-779295D01*
X1985215Y-779900D01*
X1985820Y-779295D01*
X1985215Y-778691D01*
X1912780Y-729103D02*
Y-741800D01*
Y-729103D02*
X1917012D01*
X1918826Y-729707D01*
X1920036Y-730917D01*
X1920640Y-732126D01*
X1921245Y-733940D01*
Y-736963D01*
X1920640Y-738777D01*
X1920036Y-739986D01*
X1918826Y-741195D01*
X1917012Y-741800D01*
X1912780D01*
X1924087Y-733335D02*
Y-741800D01*
Y-736963D02*
X1924691Y-735149D01*
X1925901Y-733940D01*
X1927110Y-733335D01*
X1928924D01*
X1937328D02*
Y-741800D01*
Y-735149D02*
X1936119Y-733940D01*
X1934910Y-733335D01*
X1933096D01*
X1931886Y-733940D01*
X1930677Y-735149D01*
X1930072Y-736963D01*
Y-738172D01*
X1930677Y-739986D01*
X1931886Y-741195D01*
X1933096Y-741800D01*
X1934910D01*
X1936119Y-741195D01*
X1937328Y-739986D01*
X1940714Y-733335D02*
X1943133Y-741800D01*
X1945551Y-733335D02*
X1943133Y-741800D01*
X1945551Y-733335D02*
X1947970Y-741800D01*
X1950388Y-733335D02*
X1947970Y-741800D01*
X1953351Y-733335D02*
Y-741800D01*
Y-735754D02*
X1955165Y-733940D01*
X1956374Y-733335D01*
X1958188D01*
X1959397Y-733940D01*
X1960002Y-735754D01*
Y-741800D01*
X1963932Y-733335D02*
X1963327Y-733940D01*
X1963932Y-734544D01*
X1964536Y-733940D01*
X1963932Y-733335D01*
Y-740591D02*
X1963327Y-741195D01*
X1963932Y-741800D01*
X1964536Y-741195D01*
X1963932Y-740591D01*
X1913000Y-922303D02*
Y-935000D01*
Y-922303D02*
X1920860D01*
X1913000Y-928349D02*
X1917837D01*
X1923521Y-922303D02*
X1924125Y-922907D01*
X1924730Y-922303D01*
X1924125Y-921698D01*
X1923521Y-922303D01*
X1924125Y-926535D02*
Y-935000D01*
X1926967Y-922303D02*
Y-935000D01*
X1929627Y-930163D02*
X1936883D01*
Y-928954D01*
X1936278Y-927744D01*
X1935674Y-927140D01*
X1934464Y-926535D01*
X1932650D01*
X1931441Y-927140D01*
X1930232Y-928349D01*
X1929627Y-930163D01*
Y-931372D01*
X1930232Y-933186D01*
X1931441Y-934395D01*
X1932650Y-935000D01*
X1934464D01*
X1935674Y-934395D01*
X1936883Y-933186D01*
X1940208Y-926535D02*
X1939604Y-927140D01*
X1940208Y-927744D01*
X1940813Y-927140D01*
X1940208Y-926535D01*
Y-933791D02*
X1939604Y-934395D01*
X1940208Y-935000D01*
X1940813Y-934395D01*
X1940208Y-933791D01*
X1962036Y-924117D02*
X1960826Y-922907D01*
X1959012Y-922303D01*
X1956594D01*
X1954780Y-922907D01*
X1953571Y-924117D01*
Y-925326D01*
X1954175Y-926535D01*
X1954780Y-927140D01*
X1955989Y-927744D01*
X1959617Y-928954D01*
X1960826Y-929558D01*
X1961431Y-930163D01*
X1962036Y-931372D01*
Y-933186D01*
X1960826Y-934395D01*
X1959012Y-935000D01*
X1956594D01*
X1954780Y-934395D01*
X1953571Y-933186D01*
X1964877Y-922303D02*
Y-935000D01*
Y-928954D02*
X1966691Y-927140D01*
X1967901Y-926535D01*
X1969715D01*
X1970924Y-927140D01*
X1971528Y-928954D01*
Y-935000D01*
X1974854Y-930163D02*
X1982109D01*
Y-928954D01*
X1981505Y-927744D01*
X1980900Y-927140D01*
X1979691Y-926535D01*
X1977877D01*
X1976668Y-927140D01*
X1975459Y-928349D01*
X1974854Y-930163D01*
Y-931372D01*
X1975459Y-933186D01*
X1976668Y-934395D01*
X1977877Y-935000D01*
X1979691D01*
X1980900Y-934395D01*
X1982109Y-933186D01*
X1984830Y-926535D02*
Y-935000D01*
Y-930163D02*
X1985435Y-928349D01*
X1986644Y-927140D01*
X1987854Y-926535D01*
X1989667D01*
X1992025Y-922303D02*
X1992630Y-922907D01*
X1993235Y-922303D01*
X1992630Y-921698D01*
X1992025Y-922303D01*
X1992630Y-926535D02*
Y-935000D01*
X2000309Y-922303D02*
X1999100D01*
X1997890Y-922907D01*
X1997286Y-924721D01*
Y-935000D01*
X1995472Y-926535D02*
X1999704D01*
X2006960Y-922303D02*
X2005751D01*
X2004541Y-922907D01*
X2003937Y-924721D01*
Y-935000D01*
X2002123Y-926535D02*
X2006355D01*
X2008774Y-929558D02*
X2019657D01*
X2031871Y-924117D02*
X2030661Y-922907D01*
X2028848Y-922303D01*
X2026429D01*
X2024615Y-922907D01*
X2023406Y-924117D01*
Y-925326D01*
X2024010Y-926535D01*
X2024615Y-927140D01*
X2025824Y-927744D01*
X2029452Y-928954D01*
X2030661Y-929558D01*
X2031266Y-930163D01*
X2031871Y-931372D01*
Y-933186D01*
X2030661Y-934395D01*
X2028848Y-935000D01*
X2026429D01*
X2024615Y-934395D01*
X2023406Y-933186D01*
X2036526Y-922303D02*
Y-932581D01*
X2037131Y-934395D01*
X2038340Y-935000D01*
X2039550D01*
X2034713Y-926535D02*
X2038945D01*
X2041364Y-930163D02*
X2048619D01*
Y-928954D01*
X2048014Y-927744D01*
X2047410Y-927140D01*
X2046201Y-926535D01*
X2044387D01*
X2043177Y-927140D01*
X2041968Y-928349D01*
X2041364Y-930163D01*
Y-931372D01*
X2041968Y-933186D01*
X2043177Y-934395D01*
X2044387Y-935000D01*
X2046201D01*
X2047410Y-934395D01*
X2048619Y-933186D01*
X2051340Y-926535D02*
Y-935000D01*
Y-930163D02*
X2051944Y-928349D01*
X2053154Y-927140D01*
X2054363Y-926535D01*
X2056177D01*
X2057326D02*
Y-935000D01*
Y-928954D02*
X2059140Y-927140D01*
X2060349Y-926535D01*
X2062163D01*
X2063372Y-927140D01*
X2063977Y-928954D01*
Y-935000D01*
X2067907Y-933791D02*
X2067302Y-934395D01*
X2067907Y-935000D01*
X2068512Y-934395D01*
X2067907Y-933791D01*
X2071293Y-928954D02*
X2076734D01*
X2078548Y-928349D01*
X2079153Y-927744D01*
X2079758Y-926535D01*
Y-924721D01*
X2079153Y-923512D01*
X2078548Y-922907D01*
X2076734Y-922303D01*
X2071293D01*
Y-935000D01*
X2089855Y-928349D02*
X2088646Y-927140D01*
X2087436Y-926535D01*
X2085623D01*
X2084413Y-927140D01*
X2083204Y-928349D01*
X2082599Y-930163D01*
Y-931372D01*
X2083204Y-933186D01*
X2084413Y-934395D01*
X2085623Y-935000D01*
X2087436D01*
X2088646Y-934395D01*
X2089855Y-933186D01*
X2092576Y-922303D02*
Y-935000D01*
Y-928349D02*
X2093785Y-927140D01*
X2094994Y-926535D01*
X2096808D01*
X2098017Y-927140D01*
X2099227Y-928349D01*
X2099831Y-930163D01*
Y-931372D01*
X2099227Y-933186D01*
X2098017Y-934395D01*
X2096808Y-935000D01*
X2094994D01*
X2093785Y-934395D01*
X2092576Y-933186D01*
X2102552Y-922303D02*
Y-935000D01*
Y-922303D02*
X2106785D01*
X2108599Y-922907D01*
X2109808Y-924117D01*
X2110412Y-925326D01*
X2111017Y-927140D01*
Y-930163D01*
X2110412Y-931977D01*
X2109808Y-933186D01*
X2108599Y-934395D01*
X2106785Y-935000D01*
X2102552D01*
X2116882Y-926535D02*
X2115673Y-927140D01*
X2114464Y-928349D01*
X2113859Y-930163D01*
Y-931372D01*
X2114464Y-933186D01*
X2115673Y-934395D01*
X2116882Y-935000D01*
X2118696D01*
X2119905Y-934395D01*
X2121115Y-933186D01*
X2121719Y-931372D01*
Y-930163D01*
X2121115Y-928349D01*
X2119905Y-927140D01*
X2118696Y-926535D01*
X2116882D01*
X2131756Y-928349D02*
X2130547Y-927140D01*
X2129337Y-926535D01*
X2127524D01*
X2126314Y-927140D01*
X2125105Y-928349D01*
X2124500Y-930163D01*
Y-931372D01*
X2125105Y-933186D01*
X2126314Y-934395D01*
X2127524Y-935000D01*
X2129337D01*
X2130547Y-934395D01*
X2131756Y-933186D01*
X2268980Y-806963D02*
Y-816032D01*
X2269585Y-817846D01*
X2270794Y-819055D01*
X2272608Y-819660D01*
X2273817D01*
X2275631Y-819055D01*
X2276840Y-817846D01*
X2277445Y-816032D01*
Y-806963D01*
X2280952Y-811195D02*
Y-819660D01*
Y-813614D02*
X2282766Y-811800D01*
X2283975Y-811195D01*
X2285789D01*
X2286998Y-811800D01*
X2287603Y-813614D01*
Y-819660D01*
X2292137Y-806963D02*
X2292742Y-807567D01*
X2293347Y-806963D01*
X2292742Y-806358D01*
X2292137Y-806963D01*
X2292742Y-811195D02*
Y-819660D01*
X2297398Y-806963D02*
Y-817242D01*
X2298002Y-819055D01*
X2299212Y-819660D01*
X2300421D01*
X2295584Y-811195D02*
X2299816D01*
X2313421Y-806963D02*
X2314025Y-807567D01*
X2314630Y-806963D01*
X2314025Y-806358D01*
X2313421Y-806963D01*
X2314025Y-811195D02*
Y-819660D01*
X2316867Y-811195D02*
Y-819660D01*
Y-813614D02*
X2318681Y-811800D01*
X2319890Y-811195D01*
X2321704D01*
X2322913Y-811800D01*
X2323518Y-813614D01*
Y-819660D01*
X2327448Y-811195D02*
X2326843Y-811800D01*
X2327448Y-812404D01*
X2328053Y-811800D01*
X2327448Y-811195D01*
Y-818451D02*
X2326843Y-819055D01*
X2327448Y-819660D01*
X2328053Y-819055D01*
X2327448Y-818451D01*
X2340810Y-811195D02*
Y-819660D01*
Y-813614D02*
X2342624Y-811800D01*
X2343833Y-811195D01*
X2345647D01*
X2346857Y-811800D01*
X2347461Y-813614D01*
Y-819660D01*
Y-813614D02*
X2349275Y-811800D01*
X2350484Y-811195D01*
X2352298D01*
X2353508Y-811800D01*
X2354112Y-813614D01*
Y-819660D01*
X2358103Y-811195D02*
Y-819660D01*
Y-813614D02*
X2359917Y-811800D01*
X2361126Y-811195D01*
X2362940D01*
X2364149Y-811800D01*
X2364754Y-813614D01*
Y-819660D01*
Y-813614D02*
X2366568Y-811800D01*
X2367777Y-811195D01*
X2369591D01*
X2370800Y-811800D01*
X2371405Y-813614D01*
Y-819660D01*
X2574625Y-883707D02*
X2573416Y-882497D01*
X2571602Y-881893D01*
X2569183D01*
X2567369Y-882497D01*
X2566160Y-883707D01*
Y-884916D01*
X2566765Y-886125D01*
X2567369Y-886730D01*
X2568578Y-887334D01*
X2572206Y-888544D01*
X2573416Y-889148D01*
X2574020Y-889753D01*
X2574625Y-890962D01*
Y-892776D01*
X2573416Y-893985D01*
X2571602Y-894590D01*
X2569183D01*
X2567369Y-893985D01*
X2566160Y-892776D01*
X2578676Y-881893D02*
X2579280Y-882497D01*
X2579885Y-881893D01*
X2579280Y-881288D01*
X2578676Y-881893D01*
X2579280Y-886125D02*
Y-894590D01*
X2588773Y-886125D02*
X2582122Y-894590D01*
Y-886125D02*
X2588773D01*
X2582122Y-894590D02*
X2588773D01*
X2591434Y-889753D02*
X2598689D01*
Y-888544D01*
X2598085Y-887334D01*
X2597480Y-886730D01*
X2596271Y-886125D01*
X2594457D01*
X2593247Y-886730D01*
X2592038Y-887939D01*
X2591434Y-889753D01*
Y-890962D01*
X2592038Y-892776D01*
X2593247Y-893985D01*
X2594457Y-894590D01*
X2596271D01*
X2597480Y-893985D01*
X2598689Y-892776D01*
X2602015Y-886125D02*
X2601410Y-886730D01*
X2602015Y-887334D01*
X2602619Y-886730D01*
X2602015Y-886125D01*
Y-893381D02*
X2601410Y-893985D01*
X2602015Y-894590D01*
X2602619Y-893985D01*
X2602015Y-893381D01*
X2625051Y-894590D02*
X2620214Y-881893D01*
X2615377Y-894590D01*
X2617191Y-890358D02*
X2623237D01*
X2629223Y-881893D02*
X2635874D01*
X2632246Y-886730D01*
X2634060D01*
X2635269Y-887334D01*
X2635874Y-887939D01*
X2636479Y-889753D01*
Y-890962D01*
X2635874Y-892776D01*
X2634665Y-893985D01*
X2632851Y-894590D01*
X2631037D01*
X2629223Y-893985D01*
X2628618Y-893381D01*
X2628014Y-892171D01*
X2631600Y-792603D02*
Y-805300D01*
Y-792603D02*
X2639460D01*
X2631600Y-798649D02*
X2636437D01*
X2648167Y-796835D02*
Y-805300D01*
Y-798649D02*
X2646958Y-797440D01*
X2645748Y-796835D01*
X2643935D01*
X2642725Y-797440D01*
X2641516Y-798649D01*
X2640911Y-800463D01*
Y-801672D01*
X2641516Y-803486D01*
X2642725Y-804695D01*
X2643935Y-805300D01*
X2645748D01*
X2646958Y-804695D01*
X2648167Y-803486D01*
X2651553Y-796835D02*
X2658204Y-805300D01*
Y-796835D02*
X2651553Y-805300D01*
X2661469Y-804091D02*
X2660864Y-804695D01*
X2661469Y-805300D01*
X2662073Y-804695D01*
X2661469Y-804091D01*
X2665459Y-796835D02*
X2664855Y-797440D01*
X2665459Y-798044D01*
X2666064Y-797440D01*
X2665459Y-796835D01*
Y-804091D02*
X2664855Y-804695D01*
X2665459Y-805300D01*
X2666064Y-804695D01*
X2665459Y-804091D01*
X2684264Y-794417D02*
Y-805300D01*
X2678822Y-799858D02*
X2689705D01*
X2699500Y-792603D02*
X2693454Y-801068D01*
X2702523D01*
X2699500Y-792603D02*
Y-805300D01*
X2704760Y-795021D02*
X2705970Y-794417D01*
X2707784Y-792603D01*
Y-805300D01*
X2727072Y-792603D02*
X2725258Y-793207D01*
X2724653Y-794417D01*
Y-795626D01*
X2725258Y-796835D01*
X2726467Y-797440D01*
X2728885Y-798044D01*
X2730699Y-798649D01*
X2731909Y-799858D01*
X2732513Y-801068D01*
Y-802881D01*
X2731909Y-804091D01*
X2731304Y-804695D01*
X2729490Y-805300D01*
X2727072D01*
X2725258Y-804695D01*
X2724653Y-804091D01*
X2724048Y-802881D01*
Y-801068D01*
X2724653Y-799858D01*
X2725862Y-798649D01*
X2727676Y-798044D01*
X2730095Y-797440D01*
X2731304Y-796835D01*
X2731909Y-795626D01*
Y-794417D01*
X2731304Y-793207D01*
X2729490Y-792603D01*
X2727072D01*
X2735355Y-795021D02*
X2736564Y-794417D01*
X2738378Y-792603D01*
Y-805300D01*
X2763108Y-792603D02*
X2757061Y-805300D01*
X2754643Y-792603D02*
X2763108D01*
X2773205D02*
X2767159D01*
X2766554Y-798044D01*
X2767159Y-797440D01*
X2768972Y-796835D01*
X2770786D01*
X2772600Y-797440D01*
X2773810Y-798649D01*
X2774414Y-800463D01*
Y-801672D01*
X2773810Y-803486D01*
X2772600Y-804695D01*
X2770786Y-805300D01*
X2768972D01*
X2767159Y-804695D01*
X2766554Y-804091D01*
X2765949Y-802881D01*
X2780884Y-792603D02*
X2779070Y-793207D01*
X2777861Y-795021D01*
X2777256Y-798044D01*
Y-799858D01*
X2777861Y-802881D01*
X2779070Y-804695D01*
X2780884Y-805300D01*
X2782093D01*
X2783907Y-804695D01*
X2785116Y-802881D01*
X2785721Y-799858D01*
Y-798044D01*
X2785116Y-795021D01*
X2783907Y-793207D01*
X2782093Y-792603D01*
X2780884D01*
X2802167D02*
X2800353Y-793207D01*
X2799144Y-795021D01*
X2798539Y-798044D01*
Y-799858D01*
X2799144Y-802881D01*
X2800353Y-804695D01*
X2802167Y-805300D01*
X2803376D01*
X2805190Y-804695D01*
X2806399Y-802881D01*
X2807004Y-799858D01*
Y-798044D01*
X2806399Y-795021D01*
X2805190Y-793207D01*
X2803376Y-792603D01*
X2802167D01*
X2817101Y-794417D02*
X2816497Y-793207D01*
X2814683Y-792603D01*
X2813474D01*
X2811660Y-793207D01*
X2810450Y-795021D01*
X2809846Y-798044D01*
Y-801068D01*
X2810450Y-803486D01*
X2811660Y-804695D01*
X2813474Y-805300D01*
X2814078D01*
X2815892Y-804695D01*
X2817101Y-803486D01*
X2817706Y-801672D01*
Y-801068D01*
X2817101Y-799254D01*
X2815892Y-798044D01*
X2814078Y-797440D01*
X2813474D01*
X2811660Y-798044D01*
X2810450Y-799254D01*
X2809846Y-801068D01*
X2836510Y-792603D02*
X2830464Y-801068D01*
X2839533D01*
X2836510Y-792603D02*
Y-805300D01*
X2849026Y-792603D02*
X2842979D01*
X2842375Y-798044D01*
X2842979Y-797440D01*
X2844793Y-796835D01*
X2846607D01*
X2848421Y-797440D01*
X2849630Y-798649D01*
X2850235Y-800463D01*
Y-801672D01*
X2849630Y-803486D01*
X2848421Y-804695D01*
X2846607Y-805300D01*
X2844793D01*
X2842979Y-804695D01*
X2842375Y-804091D01*
X2841770Y-802881D01*
X2635833Y-769743D02*
Y-782440D01*
X2631600Y-769743D02*
X2640065D01*
X2641577Y-777603D02*
X2648832D01*
Y-776394D01*
X2648228Y-775184D01*
X2647623Y-774580D01*
X2646414Y-773975D01*
X2644600D01*
X2643390Y-774580D01*
X2642181Y-775789D01*
X2641577Y-777603D01*
Y-778812D01*
X2642181Y-780626D01*
X2643390Y-781835D01*
X2644600Y-782440D01*
X2646414D01*
X2647623Y-781835D01*
X2648832Y-780626D01*
X2651553Y-769743D02*
Y-782440D01*
X2654818Y-781231D02*
X2654213Y-781835D01*
X2654818Y-782440D01*
X2655422Y-781835D01*
X2654818Y-781231D01*
X2658808Y-773975D02*
X2658204Y-774580D01*
X2658808Y-775184D01*
X2659413Y-774580D01*
X2658808Y-773975D01*
Y-781231D02*
X2658204Y-781835D01*
X2658808Y-782440D01*
X2659413Y-781835D01*
X2658808Y-781231D01*
X2677613Y-771557D02*
Y-782440D01*
X2672171Y-776998D02*
X2683054D01*
X2692849Y-769743D02*
X2686803Y-778208D01*
X2695872D01*
X2692849Y-769743D02*
Y-782440D01*
X2698109Y-772161D02*
X2699319Y-771557D01*
X2701133Y-769743D01*
Y-782440D01*
X2720421Y-769743D02*
X2718607Y-770347D01*
X2718002Y-771557D01*
Y-772766D01*
X2718607Y-773975D01*
X2719816Y-774580D01*
X2722234Y-775184D01*
X2724048Y-775789D01*
X2725258Y-776998D01*
X2725862Y-778208D01*
Y-780022D01*
X2725258Y-781231D01*
X2724653Y-781835D01*
X2722839Y-782440D01*
X2720421D01*
X2718607Y-781835D01*
X2718002Y-781231D01*
X2717397Y-780022D01*
Y-778208D01*
X2718002Y-776998D01*
X2719211Y-775789D01*
X2721025Y-775184D01*
X2723444Y-774580D01*
X2724653Y-773975D01*
X2725258Y-772766D01*
Y-771557D01*
X2724653Y-770347D01*
X2722839Y-769743D01*
X2720421D01*
X2728704Y-772161D02*
X2729913Y-771557D01*
X2731727Y-769743D01*
Y-782440D01*
X2756457Y-769743D02*
X2750410Y-782440D01*
X2747992Y-769743D02*
X2756457D01*
X2766554D02*
X2760508D01*
X2759903Y-775184D01*
X2760508Y-774580D01*
X2762321Y-773975D01*
X2764135D01*
X2765949Y-774580D01*
X2767159Y-775789D01*
X2767763Y-777603D01*
Y-778812D01*
X2767159Y-780626D01*
X2765949Y-781835D01*
X2764135Y-782440D01*
X2762321D01*
X2760508Y-781835D01*
X2759903Y-781231D01*
X2759298Y-780022D01*
X2774233Y-769743D02*
X2772419Y-770347D01*
X2771210Y-772161D01*
X2770605Y-775184D01*
Y-776998D01*
X2771210Y-780022D01*
X2772419Y-781835D01*
X2774233Y-782440D01*
X2775442D01*
X2777256Y-781835D01*
X2778465Y-780022D01*
X2779070Y-776998D01*
Y-775184D01*
X2778465Y-772161D01*
X2777256Y-770347D01*
X2775442Y-769743D01*
X2774233D01*
X2795516D02*
X2793702Y-770347D01*
X2792493Y-772161D01*
X2791888Y-775184D01*
Y-776998D01*
X2792493Y-780022D01*
X2793702Y-781835D01*
X2795516Y-782440D01*
X2796725D01*
X2798539Y-781835D01*
X2799748Y-780022D01*
X2800353Y-776998D01*
Y-775184D01*
X2799748Y-772161D01*
X2798539Y-770347D01*
X2796725Y-769743D01*
X2795516D01*
X2810450Y-771557D02*
X2809846Y-770347D01*
X2808032Y-769743D01*
X2806823D01*
X2805009Y-770347D01*
X2803799Y-772161D01*
X2803195Y-775184D01*
Y-778208D01*
X2803799Y-780626D01*
X2805009Y-781835D01*
X2806823Y-782440D01*
X2807427D01*
X2809241Y-781835D01*
X2810450Y-780626D01*
X2811055Y-778812D01*
Y-778208D01*
X2810450Y-776394D01*
X2809241Y-775184D01*
X2807427Y-774580D01*
X2806823D01*
X2805009Y-775184D01*
X2803799Y-776394D01*
X2803195Y-778208D01*
X2829859Y-769743D02*
X2823813Y-778208D01*
X2832882D01*
X2829859Y-769743D02*
Y-782440D01*
X2838747Y-769743D02*
X2836933Y-770347D01*
X2835724Y-772161D01*
X2835119Y-775184D01*
Y-776998D01*
X2835724Y-780022D01*
X2836933Y-781835D01*
X2838747Y-782440D01*
X2839956D01*
X2841770Y-781835D01*
X2842979Y-780022D01*
X2843584Y-776998D01*
Y-775184D01*
X2842979Y-772161D01*
X2841770Y-770347D01*
X2839956Y-769743D01*
X2838747D01*
X2640670Y-749906D02*
X2640065Y-748697D01*
X2638856Y-747487D01*
X2637646Y-746883D01*
X2635228D01*
X2634019Y-747487D01*
X2632809Y-748697D01*
X2632205Y-749906D01*
X2631600Y-751720D01*
Y-754743D01*
X2632205Y-756557D01*
X2632809Y-757766D01*
X2634019Y-758975D01*
X2635228Y-759580D01*
X2637646D01*
X2638856Y-758975D01*
X2640065Y-757766D01*
X2640670Y-756557D01*
X2644237Y-746883D02*
Y-759580D01*
X2652702Y-746883D02*
Y-759580D01*
X2644237Y-752929D02*
X2652702D01*
X2666185Y-754138D02*
X2677068D01*
X2698654Y-751115D02*
X2698049Y-752929D01*
X2696840Y-754138D01*
X2695026Y-754743D01*
X2694421D01*
X2692607Y-754138D01*
X2691398Y-752929D01*
X2690793Y-751115D01*
Y-750510D01*
X2691398Y-748697D01*
X2692607Y-747487D01*
X2694421Y-746883D01*
X2695026D01*
X2696840Y-747487D01*
X2698049Y-748697D01*
X2698654Y-751115D01*
Y-754138D01*
X2698049Y-757161D01*
X2696840Y-758975D01*
X2695026Y-759580D01*
X2693817D01*
X2692003Y-758975D01*
X2691398Y-757766D01*
X2708146Y-746883D02*
X2702100Y-755348D01*
X2711170D01*
X2708146Y-746883D02*
Y-759580D01*
X2721872Y-746883D02*
X2715825Y-759580D01*
X2713407Y-746883D02*
X2721872D01*
X2728341D02*
X2726527Y-747487D01*
X2725318Y-749301D01*
X2724713Y-752324D01*
Y-754138D01*
X2725318Y-757161D01*
X2726527Y-758975D01*
X2728341Y-759580D01*
X2729550D01*
X2731364Y-758975D01*
X2732574Y-757161D01*
X2733178Y-754138D01*
Y-752324D01*
X2732574Y-749301D01*
X2731364Y-747487D01*
X2729550Y-746883D01*
X2728341D01*
X2745996D02*
Y-759580D01*
Y-746883D02*
X2751438D01*
X2753252Y-747487D01*
X2753857Y-748092D01*
X2754461Y-749301D01*
Y-750510D01*
X2753857Y-751720D01*
X2753252Y-752324D01*
X2751438Y-752929D01*
X2745996D02*
X2751438D01*
X2753252Y-753534D01*
X2753857Y-754138D01*
X2754461Y-755348D01*
Y-757161D01*
X2753857Y-758371D01*
X2753252Y-758975D01*
X2751438Y-759580D01*
X2745996D01*
X2757303Y-751115D02*
Y-757161D01*
X2757908Y-758975D01*
X2759117Y-759580D01*
X2760931D01*
X2762140Y-758975D01*
X2763954Y-757161D01*
Y-751115D02*
Y-759580D01*
X2774535Y-752929D02*
X2773326Y-751720D01*
X2772117Y-751115D01*
X2770303D01*
X2769093Y-751720D01*
X2767884Y-752929D01*
X2767279Y-754743D01*
Y-755952D01*
X2767884Y-757766D01*
X2769093Y-758975D01*
X2770303Y-759580D01*
X2772117D01*
X2773326Y-758975D01*
X2774535Y-757766D01*
X2777256Y-746883D02*
Y-759580D01*
Y-753534D02*
X2779070Y-751720D01*
X2780279Y-751115D01*
X2782093D01*
X2783302Y-751720D01*
X2783907Y-753534D01*
Y-759580D01*
X2793883Y-752929D02*
X2793279Y-751720D01*
X2791465Y-751115D01*
X2789651D01*
X2787837Y-751720D01*
X2787232Y-752929D01*
X2787837Y-754138D01*
X2789046Y-754743D01*
X2792069Y-755348D01*
X2793279Y-755952D01*
X2793883Y-757161D01*
Y-757766D01*
X2793279Y-758975D01*
X2791465Y-759580D01*
X2789651D01*
X2787837Y-758975D01*
X2787232Y-757766D01*
X2810753Y-744464D02*
X2809543Y-745674D01*
X2808334Y-747487D01*
X2807125Y-749906D01*
X2806520Y-752929D01*
Y-755348D01*
X2807125Y-758371D01*
X2808334Y-760789D01*
X2809543Y-762603D01*
X2810753Y-763812D01*
X2809543Y-745674D02*
X2808334Y-748092D01*
X2807729Y-749906D01*
X2807125Y-752929D01*
Y-755348D01*
X2807729Y-758371D01*
X2808334Y-760185D01*
X2809543Y-762603D01*
X2821636Y-748697D02*
X2820427Y-747487D01*
X2818613Y-746883D01*
X2816194D01*
X2814380Y-747487D01*
X2813171Y-748697D01*
Y-749906D01*
X2813776Y-751115D01*
X2814380Y-751720D01*
X2815590Y-752324D01*
X2819218Y-753534D01*
X2820427Y-754138D01*
X2821031Y-754743D01*
X2821636Y-755952D01*
Y-757766D01*
X2820427Y-758975D01*
X2818613Y-759580D01*
X2816194D01*
X2814380Y-758975D01*
X2813171Y-757766D01*
X2833547Y-749906D02*
X2832943Y-748697D01*
X2831733Y-747487D01*
X2830524Y-746883D01*
X2828105D01*
X2826896Y-747487D01*
X2825687Y-748697D01*
X2825082Y-749906D01*
X2824478Y-751720D01*
Y-754743D01*
X2825082Y-756557D01*
X2825687Y-757766D01*
X2826896Y-758975D01*
X2828105Y-759580D01*
X2830524D01*
X2831733Y-758975D01*
X2832943Y-757766D01*
X2833547Y-756557D01*
Y-754743D01*
X2830524D02*
X2833547D01*
X2836450Y-744464D02*
X2837659Y-745674D01*
X2838868Y-747487D01*
X2840077Y-749906D01*
X2840682Y-752929D01*
Y-755348D01*
X2840077Y-758371D01*
X2838868Y-760789D01*
X2837659Y-762603D01*
X2836450Y-763812D01*
X2837659Y-745674D02*
X2838868Y-748092D01*
X2839473Y-749906D01*
X2840077Y-752929D01*
Y-755348D01*
X2839473Y-758371D01*
X2838868Y-760185D01*
X2837659Y-762603D01*
X2640670Y-727046D02*
X2640065Y-725837D01*
X2638856Y-724627D01*
X2637646Y-724023D01*
X2635228D01*
X2634019Y-724627D01*
X2632809Y-725837D01*
X2632205Y-727046D01*
X2631600Y-728860D01*
Y-731883D01*
X2632205Y-733697D01*
X2632809Y-734906D01*
X2634019Y-736115D01*
X2635228Y-736720D01*
X2637646D01*
X2638856Y-736115D01*
X2640065Y-734906D01*
X2640670Y-733697D01*
Y-731883D01*
X2637646D02*
X2640670D01*
X2643572D02*
X2650827D01*
Y-730674D01*
X2650223Y-729464D01*
X2649618Y-728860D01*
X2648409Y-728255D01*
X2646595D01*
X2645386Y-728860D01*
X2644176Y-730069D01*
X2643572Y-731883D01*
Y-733092D01*
X2644176Y-734906D01*
X2645386Y-736115D01*
X2646595Y-736720D01*
X2648409D01*
X2649618Y-736115D01*
X2650827Y-734906D01*
X2653548Y-728255D02*
X2655967Y-736720D01*
X2658385Y-728255D02*
X2655967Y-736720D01*
X2658385Y-728255D02*
X2660804Y-736720D01*
X2663222Y-728255D02*
X2660804Y-736720D01*
X2666185Y-731883D02*
X2673441D01*
Y-730674D01*
X2672836Y-729464D01*
X2672231Y-728860D01*
X2671022Y-728255D01*
X2669208D01*
X2667999Y-728860D01*
X2666790Y-730069D01*
X2666185Y-731883D01*
Y-733092D01*
X2666790Y-734906D01*
X2667999Y-736115D01*
X2669208Y-736720D01*
X2671022D01*
X2672231Y-736115D01*
X2673441Y-734906D01*
X2676161Y-728255D02*
Y-736720D01*
Y-731883D02*
X2676766Y-730069D01*
X2677975Y-728860D01*
X2679185Y-728255D01*
X2680999D01*
X2682147Y-724023D02*
Y-736720D01*
Y-730069D02*
X2683357Y-728860D01*
X2684566Y-728255D01*
X2686380D01*
X2687589Y-728860D01*
X2688798Y-730069D01*
X2689403Y-731883D01*
Y-733092D01*
X2688798Y-734906D01*
X2687589Y-736115D01*
X2686380Y-736720D01*
X2684566D01*
X2683357Y-736115D01*
X2682147Y-734906D01*
X2692124Y-731883D02*
X2699379D01*
Y-730674D01*
X2698775Y-729464D01*
X2698170Y-728860D01*
X2696961Y-728255D01*
X2695147D01*
X2693938Y-728860D01*
X2692728Y-730069D01*
X2692124Y-731883D01*
Y-733092D01*
X2692728Y-734906D01*
X2693938Y-736115D01*
X2695147Y-736720D01*
X2696961D01*
X2698170Y-736115D01*
X2699379Y-734906D01*
X2708751Y-730069D02*
X2708146Y-728860D01*
X2706333Y-728255D01*
X2704519D01*
X2702705Y-728860D01*
X2702100Y-730069D01*
X2702705Y-731278D01*
X2703914Y-731883D01*
X2706937Y-732488D01*
X2708146Y-733092D01*
X2708751Y-734302D01*
Y-734906D01*
X2708146Y-736115D01*
X2706333Y-736720D01*
X2704519D01*
X2702705Y-736115D01*
X2702100Y-734906D01*
X2713225Y-724023D02*
Y-734302D01*
X2713830Y-736115D01*
X2715039Y-736720D01*
X2716248D01*
X2711411Y-728255D02*
X2715644D01*
X2718062D02*
Y-736720D01*
Y-731883D02*
X2718667Y-730069D01*
X2719876Y-728860D01*
X2721086Y-728255D01*
X2722899D01*
X2731304D02*
Y-736720D01*
Y-730069D02*
X2730095Y-728860D01*
X2728885Y-728255D01*
X2727072D01*
X2725862Y-728860D01*
X2724653Y-730069D01*
X2724048Y-731883D01*
Y-733092D01*
X2724653Y-734906D01*
X2725862Y-736115D01*
X2727072Y-736720D01*
X2728885D01*
X2730095Y-736115D01*
X2731304Y-734906D01*
X2741341Y-730069D02*
X2740736Y-728860D01*
X2738922Y-728255D01*
X2737108D01*
X2735294Y-728860D01*
X2734690Y-730069D01*
X2735294Y-731278D01*
X2736504Y-731883D01*
X2739527Y-732488D01*
X2740736Y-733092D01*
X2741341Y-734302D01*
Y-734906D01*
X2740736Y-736115D01*
X2738922Y-736720D01*
X2737108D01*
X2735294Y-736115D01*
X2734690Y-734906D01*
X2750652Y-730069D02*
X2750048Y-728860D01*
X2748234Y-728255D01*
X2746420D01*
X2744606Y-728860D01*
X2744001Y-730069D01*
X2744606Y-731278D01*
X2745815Y-731883D01*
X2748838Y-732488D01*
X2750048Y-733092D01*
X2750652Y-734302D01*
Y-734906D01*
X2750048Y-736115D01*
X2748234Y-736720D01*
X2746420D01*
X2744606Y-736115D01*
X2744001Y-734906D01*
X2753312Y-731883D02*
X2760568D01*
Y-730674D01*
X2759963Y-729464D01*
X2759359Y-728860D01*
X2758150Y-728255D01*
X2756336D01*
X2755126Y-728860D01*
X2753917Y-730069D01*
X2753312Y-731883D01*
Y-733092D01*
X2753917Y-734906D01*
X2755126Y-736115D01*
X2756336Y-736720D01*
X2758150D01*
X2759359Y-736115D01*
X2760568Y-734906D01*
X2776288Y-724023D02*
X2774474Y-724627D01*
X2773870Y-725837D01*
Y-727046D01*
X2774474Y-728255D01*
X2775684Y-728860D01*
X2778102Y-729464D01*
X2779916Y-730069D01*
X2781125Y-731278D01*
X2781730Y-732488D01*
Y-734302D01*
X2781125Y-735511D01*
X2780521Y-736115D01*
X2778707Y-736720D01*
X2776288D01*
X2774474Y-736115D01*
X2773870Y-735511D01*
X2773265Y-734302D01*
Y-732488D01*
X2773870Y-731278D01*
X2775079Y-730069D01*
X2776893Y-729464D01*
X2779312Y-728860D01*
X2780521Y-728255D01*
X2781125Y-727046D01*
Y-725837D01*
X2780521Y-724627D01*
X2778707Y-724023D01*
X2776288D01*
X2469230Y-796368D02*
Y-803700D01*
Y-798463D02*
X2470801Y-796892D01*
X2471848Y-796368D01*
X2473420D01*
X2474467Y-796892D01*
X2474991Y-798463D01*
Y-803700D01*
Y-798463D02*
X2476562Y-796892D01*
X2477609Y-796368D01*
X2479180D01*
X2480228Y-796892D01*
X2480751Y-798463D01*
Y-803700D01*
X2490492Y-796368D02*
Y-803700D01*
Y-797939D02*
X2489445Y-796892D01*
X2488397Y-796368D01*
X2486826D01*
X2485779Y-796892D01*
X2484731Y-797939D01*
X2484208Y-799510D01*
Y-800558D01*
X2484731Y-802129D01*
X2485779Y-803176D01*
X2486826Y-803700D01*
X2488397D01*
X2489445Y-803176D01*
X2490492Y-802129D01*
X2493425Y-792702D02*
Y-803700D01*
X2498662Y-796368D02*
X2493425Y-801605D01*
X2495520Y-799510D02*
X2499185Y-803700D01*
X2501961Y-792702D02*
X2502485Y-793226D01*
X2503009Y-792702D01*
X2502485Y-792179D01*
X2501961Y-792702D01*
X2502485Y-796368D02*
Y-803700D01*
X2504946Y-796368D02*
Y-803700D01*
Y-798463D02*
X2506517Y-796892D01*
X2507565Y-796368D01*
X2509136D01*
X2510183Y-796892D01*
X2510707Y-798463D01*
Y-803700D01*
X2519872Y-796368D02*
Y-804747D01*
X2519348Y-806319D01*
X2518824Y-806842D01*
X2517777Y-807366D01*
X2516206D01*
X2515158Y-806842D01*
X2519872Y-797939D02*
X2518824Y-796892D01*
X2517777Y-796368D01*
X2516206D01*
X2515158Y-796892D01*
X2514111Y-797939D01*
X2513587Y-799510D01*
Y-800558D01*
X2514111Y-802129D01*
X2515158Y-803176D01*
X2516206Y-803700D01*
X2517777D01*
X2518824Y-803176D01*
X2519872Y-802129D01*
X2532493Y-792702D02*
X2533016Y-793226D01*
X2533540Y-792702D01*
X2533016Y-792179D01*
X2532493Y-792702D01*
X2533016Y-796368D02*
Y-803700D01*
X2541762Y-792702D02*
Y-803700D01*
Y-797939D02*
X2540715Y-796892D01*
X2539667Y-796368D01*
X2538096D01*
X2537049Y-796892D01*
X2536001Y-797939D01*
X2535478Y-799510D01*
Y-800558D01*
X2536001Y-802129D01*
X2537049Y-803176D01*
X2538096Y-803700D01*
X2539667D01*
X2540715Y-803176D01*
X2541762Y-802129D01*
X2544695Y-799510D02*
X2550979D01*
Y-798463D01*
X2550455Y-797416D01*
X2549932Y-796892D01*
X2548884Y-796368D01*
X2547313D01*
X2546266Y-796892D01*
X2545219Y-797939D01*
X2544695Y-799510D01*
Y-800558D01*
X2545219Y-802129D01*
X2546266Y-803176D01*
X2547313Y-803700D01*
X2548884D01*
X2549932Y-803176D01*
X2550979Y-802129D01*
X2559620Y-796368D02*
Y-803700D01*
Y-797939D02*
X2558573Y-796892D01*
X2557525Y-796368D01*
X2555954D01*
X2554907Y-796892D01*
X2553860Y-797939D01*
X2553336Y-799510D01*
Y-800558D01*
X2553860Y-802129D01*
X2554907Y-803176D01*
X2555954Y-803700D01*
X2557525D01*
X2558573Y-803176D01*
X2559620Y-802129D01*
X2568314Y-797939D02*
X2567790Y-796892D01*
X2566219Y-796368D01*
X2564648D01*
X2563076Y-796892D01*
X2562553Y-797939D01*
X2563076Y-798987D01*
X2564124Y-799510D01*
X2566743Y-800034D01*
X2567790Y-800558D01*
X2568314Y-801605D01*
Y-802129D01*
X2567790Y-803176D01*
X2566219Y-803700D01*
X2564648D01*
X2563076Y-803176D01*
X2562553Y-802129D01*
X2579259Y-796368D02*
X2581353Y-803700D01*
X2583448Y-796368D02*
X2581353Y-803700D01*
X2583448Y-796368D02*
X2585543Y-803700D01*
X2587638Y-796368D02*
X2585543Y-803700D01*
X2592823Y-796368D02*
X2591775Y-796892D01*
X2590728Y-797939D01*
X2590204Y-799510D01*
Y-800558D01*
X2590728Y-802129D01*
X2591775Y-803176D01*
X2592823Y-803700D01*
X2594394D01*
X2595441Y-803176D01*
X2596489Y-802129D01*
X2597012Y-800558D01*
Y-799510D01*
X2596489Y-797939D01*
X2595441Y-796892D01*
X2594394Y-796368D01*
X2592823D01*
X2599421D02*
Y-803700D01*
Y-799510D02*
X2599945Y-797939D01*
X2600992Y-796892D01*
X2602040Y-796368D01*
X2603611D01*
X2604606Y-792702D02*
Y-803700D01*
X2609843Y-796368D02*
X2604606Y-801605D01*
X2606701Y-799510D02*
X2610367Y-803700D01*
X2631600Y-817155D02*
X2634019Y-825620D01*
X2636437Y-817155D02*
X2634019Y-825620D01*
X2636437Y-817155D02*
X2638856Y-825620D01*
X2641274Y-817155D02*
X2638856Y-825620D01*
X2644237Y-817155D02*
X2646655Y-825620D01*
X2649074Y-817155D02*
X2646655Y-825620D01*
X2649074Y-817155D02*
X2651492Y-825620D01*
X2653911Y-817155D02*
X2651492Y-825620D01*
X2656873Y-817155D02*
X2659292Y-825620D01*
X2661711Y-817155D02*
X2659292Y-825620D01*
X2661711Y-817155D02*
X2664129Y-825620D01*
X2666548Y-817155D02*
X2664129Y-825620D01*
X2670115Y-824411D02*
X2669510Y-825015D01*
X2670115Y-825620D01*
X2670720Y-825015D01*
X2670115Y-824411D01*
X2674710Y-812923D02*
X2675315Y-813527D01*
X2675919Y-812923D01*
X2675315Y-812318D01*
X2674710Y-812923D01*
X2675315Y-817155D02*
Y-825620D01*
X2678157Y-817155D02*
Y-825620D01*
Y-819574D02*
X2679970Y-817760D01*
X2681180Y-817155D01*
X2682994D01*
X2684203Y-817760D01*
X2684808Y-819574D01*
Y-825620D01*
Y-819574D02*
X2686621Y-817760D01*
X2687831Y-817155D01*
X2689645D01*
X2690854Y-817760D01*
X2691458Y-819574D01*
Y-825620D01*
X2697263Y-812923D02*
Y-823202D01*
X2697868Y-825015D01*
X2699077Y-825620D01*
X2700286D01*
X2695449Y-817155D02*
X2699682D01*
X2702705Y-824411D02*
X2702100Y-825015D01*
X2702705Y-825620D01*
X2703309Y-825015D01*
X2702705Y-824411D01*
X2713346Y-818969D02*
X2712137Y-817760D01*
X2710928Y-817155D01*
X2709114D01*
X2707905Y-817760D01*
X2706695Y-818969D01*
X2706091Y-820783D01*
Y-821992D01*
X2706695Y-823806D01*
X2707905Y-825015D01*
X2709114Y-825620D01*
X2710928D01*
X2712137Y-825015D01*
X2713346Y-823806D01*
X2716067Y-812923D02*
Y-825620D01*
Y-819574D02*
X2717881Y-817760D01*
X2719090Y-817155D01*
X2720904D01*
X2722113Y-817760D01*
X2722718Y-819574D01*
Y-825620D01*
X1921850Y-846426D02*
X1921245Y-845217D01*
X1920036Y-844007D01*
X1918826Y-843403D01*
X1916408D01*
X1915199Y-844007D01*
X1913989Y-845217D01*
X1913385Y-846426D01*
X1912780Y-848240D01*
Y-851263D01*
X1913385Y-853077D01*
X1913989Y-854286D01*
X1915199Y-855495D01*
X1916408Y-856100D01*
X1918826D01*
X1920036Y-855495D01*
X1921245Y-854286D01*
X1921850Y-853077D01*
X1925417Y-843403D02*
Y-856100D01*
Y-850054D02*
X1927231Y-848240D01*
X1928440Y-847635D01*
X1930254D01*
X1931463Y-848240D01*
X1932068Y-850054D01*
Y-856100D01*
X1942649Y-847635D02*
Y-856100D01*
Y-849449D02*
X1941440Y-848240D01*
X1940230Y-847635D01*
X1938416D01*
X1937207Y-848240D01*
X1935998Y-849449D01*
X1935393Y-851263D01*
Y-852472D01*
X1935998Y-854286D01*
X1937207Y-855495D01*
X1938416Y-856100D01*
X1940230D01*
X1941440Y-855495D01*
X1942649Y-854286D01*
X1946035Y-847635D02*
Y-856100D01*
Y-850054D02*
X1947849Y-848240D01*
X1949058Y-847635D01*
X1950872D01*
X1952081Y-848240D01*
X1952686Y-850054D01*
Y-856100D01*
X1963267Y-847635D02*
Y-857309D01*
X1962662Y-859123D01*
X1962057Y-859728D01*
X1960848Y-860332D01*
X1959034D01*
X1957825Y-859728D01*
X1963267Y-849449D02*
X1962057Y-848240D01*
X1960848Y-847635D01*
X1959034D01*
X1957825Y-848240D01*
X1956616Y-849449D01*
X1956011Y-851263D01*
Y-852472D01*
X1956616Y-854286D01*
X1957825Y-855495D01*
X1959034Y-856100D01*
X1960848D01*
X1962057Y-855495D01*
X1963267Y-854286D01*
X1966653Y-851263D02*
X1973908D01*
Y-850054D01*
X1973304Y-848844D01*
X1972699Y-848240D01*
X1971490Y-847635D01*
X1969676D01*
X1968467Y-848240D01*
X1967257Y-849449D01*
X1966653Y-851263D01*
Y-852472D01*
X1967257Y-854286D01*
X1968467Y-855495D01*
X1969676Y-856100D01*
X1971490D01*
X1972699Y-855495D01*
X1973908Y-854286D01*
X1983885Y-843403D02*
Y-856100D01*
Y-849449D02*
X1982675Y-848240D01*
X1981466Y-847635D01*
X1979652D01*
X1978443Y-848240D01*
X1977234Y-849449D01*
X1976629Y-851263D01*
Y-852472D01*
X1977234Y-854286D01*
X1978443Y-855495D01*
X1979652Y-856100D01*
X1981466D01*
X1982675Y-855495D01*
X1983885Y-854286D01*
X1987875Y-847635D02*
X1987271Y-848240D01*
X1987875Y-848844D01*
X1988480Y-848240D01*
X1987875Y-847635D01*
Y-854891D02*
X1987271Y-855495D01*
X1987875Y-856100D01*
X1988480Y-855495D01*
X1987875Y-854891D01*
X2022705Y-733396D02*
Y-732791D01*
X2023309Y-731582D01*
X2023914Y-730977D01*
X2025123Y-730373D01*
X2027542D01*
X2028751Y-730977D01*
X2029356Y-731582D01*
X2029960Y-732791D01*
Y-734000D01*
X2029356Y-735210D01*
X2028146Y-737024D01*
X2022100Y-743070D01*
X2030565D01*
X2037034Y-730373D02*
X2035220Y-730977D01*
X2034011Y-732791D01*
X2033407Y-735814D01*
Y-737628D01*
X2034011Y-740651D01*
X2035220Y-742465D01*
X2037034Y-743070D01*
X2038244D01*
X2040058Y-742465D01*
X2041267Y-740651D01*
X2041871Y-737628D01*
Y-735814D01*
X2041267Y-732791D01*
X2040058Y-730977D01*
X2038244Y-730373D01*
X2037034D01*
X2045318Y-733396D02*
Y-732791D01*
X2045923Y-731582D01*
X2046527Y-730977D01*
X2047736Y-730373D01*
X2050155D01*
X2051364Y-730977D01*
X2051969Y-731582D01*
X2052574Y-732791D01*
Y-734000D01*
X2051969Y-735210D01*
X2050760Y-737024D01*
X2044713Y-743070D01*
X2053178D01*
X2057229Y-730373D02*
X2063880D01*
X2060252Y-735210D01*
X2062066D01*
X2063275Y-735814D01*
X2063880Y-736419D01*
X2064485Y-738233D01*
Y-739442D01*
X2063880Y-741256D01*
X2062671Y-742465D01*
X2060857Y-743070D01*
X2059043D01*
X2057229Y-742465D01*
X2056624Y-741861D01*
X2056020Y-740651D01*
X2067327Y-737628D02*
X2078210D01*
X2085586Y-730373D02*
X2083772Y-730977D01*
X2082563Y-732791D01*
X2081959Y-735814D01*
Y-737628D01*
X2082563Y-740651D01*
X2083772Y-742465D01*
X2085586Y-743070D01*
X2086796D01*
X2088610Y-742465D01*
X2089819Y-740651D01*
X2090423Y-737628D01*
Y-735814D01*
X2089819Y-732791D01*
X2088610Y-730977D01*
X2086796Y-730373D01*
X2085586D01*
X2094474D02*
X2101125D01*
X2097498Y-735210D01*
X2099312D01*
X2100521Y-735814D01*
X2101125Y-736419D01*
X2101730Y-738233D01*
Y-739442D01*
X2101125Y-741256D01*
X2099916Y-742465D01*
X2098102Y-743070D01*
X2096288D01*
X2094474Y-742465D01*
X2093870Y-741861D01*
X2093265Y-740651D01*
X2104572Y-737628D02*
X2115455D01*
X2122832Y-730373D02*
X2121018Y-730977D01*
X2119809Y-732791D01*
X2119204Y-735814D01*
Y-737628D01*
X2119809Y-740651D01*
X2121018Y-742465D01*
X2122832Y-743070D01*
X2124041D01*
X2125855Y-742465D01*
X2127064Y-740651D01*
X2127669Y-737628D01*
Y-735814D01*
X2127064Y-732791D01*
X2125855Y-730977D01*
X2124041Y-730373D01*
X2122832D01*
X2138371Y-734605D02*
X2137766Y-736419D01*
X2136557Y-737628D01*
X2134743Y-738233D01*
X2134138D01*
X2132325Y-737628D01*
X2131115Y-736419D01*
X2130511Y-734605D01*
Y-734000D01*
X2131115Y-732187D01*
X2132325Y-730977D01*
X2134138Y-730373D01*
X2134743D01*
X2136557Y-730977D01*
X2137766Y-732187D01*
X2138371Y-734605D01*
Y-737628D01*
X2137766Y-740651D01*
X2136557Y-742465D01*
X2134743Y-743070D01*
X2133534D01*
X2131720Y-742465D01*
X2131115Y-741256D01*
X2143026Y-742465D02*
X2142422Y-743070D01*
X2141817Y-742465D01*
X2142422Y-741861D01*
X2143026Y-742465D01*
Y-743675D01*
X2142422Y-744884D01*
X2141817Y-745489D01*
X2163040Y-734605D02*
Y-744279D01*
X2162435Y-746093D01*
X2161831Y-746698D01*
X2160621Y-747302D01*
X2158807D01*
X2157598Y-746698D01*
X2163040Y-736419D02*
X2161831Y-735210D01*
X2160621Y-734605D01*
X2158807D01*
X2157598Y-735210D01*
X2156389Y-736419D01*
X2155784Y-738233D01*
Y-739442D01*
X2156389Y-741256D01*
X2157598Y-742465D01*
X2158807Y-743070D01*
X2160621D01*
X2161831Y-742465D01*
X2163040Y-741256D01*
X2166426Y-734605D02*
Y-743070D01*
Y-738233D02*
X2167030Y-736419D01*
X2168240Y-735210D01*
X2169449Y-734605D01*
X2171263D01*
X2179667D02*
Y-743070D01*
Y-736419D02*
X2178458Y-735210D01*
X2177249Y-734605D01*
X2175435D01*
X2174225Y-735210D01*
X2173016Y-736419D01*
X2172412Y-738233D01*
Y-739442D01*
X2173016Y-741256D01*
X2174225Y-742465D01*
X2175435Y-743070D01*
X2177249D01*
X2178458Y-742465D01*
X2179667Y-741256D01*
X2183053Y-734605D02*
Y-743070D01*
Y-737024D02*
X2184867Y-735210D01*
X2186076Y-734605D01*
X2187890D01*
X2189099Y-735210D01*
X2189704Y-737024D01*
Y-743070D01*
Y-737024D02*
X2191518Y-735210D01*
X2192727Y-734605D01*
X2194541D01*
X2195750Y-735210D01*
X2196355Y-737024D01*
Y-743070D01*
X2022705Y-771496D02*
Y-770891D01*
X2023309Y-769682D01*
X2023914Y-769077D01*
X2025123Y-768473D01*
X2027542D01*
X2028751Y-769077D01*
X2029356Y-769682D01*
X2029960Y-770891D01*
Y-772101D01*
X2029356Y-773310D01*
X2028146Y-775124D01*
X2022100Y-781170D01*
X2030565D01*
X2037034Y-768473D02*
X2035220Y-769077D01*
X2034011Y-770891D01*
X2033407Y-773914D01*
Y-775728D01*
X2034011Y-778752D01*
X2035220Y-780565D01*
X2037034Y-781170D01*
X2038244D01*
X2040058Y-780565D01*
X2041267Y-778752D01*
X2041871Y-775728D01*
Y-773914D01*
X2041267Y-770891D01*
X2040058Y-769077D01*
X2038244Y-768473D01*
X2037034D01*
X2045318Y-771496D02*
Y-770891D01*
X2045923Y-769682D01*
X2046527Y-769077D01*
X2047736Y-768473D01*
X2050155D01*
X2051364Y-769077D01*
X2051969Y-769682D01*
X2052574Y-770891D01*
Y-772101D01*
X2051969Y-773310D01*
X2050760Y-775124D01*
X2044713Y-781170D01*
X2053178D01*
X2057229Y-768473D02*
X2063880D01*
X2060252Y-773310D01*
X2062066D01*
X2063275Y-773914D01*
X2063880Y-774519D01*
X2064485Y-776333D01*
Y-777542D01*
X2063880Y-779356D01*
X2062671Y-780565D01*
X2060857Y-781170D01*
X2059043D01*
X2057229Y-780565D01*
X2056624Y-779961D01*
X2056020Y-778752D01*
X2067327Y-775728D02*
X2078210D01*
X2085586Y-768473D02*
X2083772Y-769077D01*
X2082563Y-770891D01*
X2081959Y-773914D01*
Y-775728D01*
X2082563Y-778752D01*
X2083772Y-780565D01*
X2085586Y-781170D01*
X2086796D01*
X2088610Y-780565D01*
X2089819Y-778752D01*
X2090423Y-775728D01*
Y-773914D01*
X2089819Y-770891D01*
X2088610Y-769077D01*
X2086796Y-768473D01*
X2085586D01*
X2094474D02*
X2101125D01*
X2097498Y-773310D01*
X2099312D01*
X2100521Y-773914D01*
X2101125Y-774519D01*
X2101730Y-776333D01*
Y-777542D01*
X2101125Y-779356D01*
X2099916Y-780565D01*
X2098102Y-781170D01*
X2096288D01*
X2094474Y-780565D01*
X2093870Y-779961D01*
X2093265Y-778752D01*
X2104572Y-775728D02*
X2115455D01*
X2122832Y-768473D02*
X2121018Y-769077D01*
X2119809Y-770891D01*
X2119204Y-773914D01*
Y-775728D01*
X2119809Y-778752D01*
X2121018Y-780565D01*
X2122832Y-781170D01*
X2124041D01*
X2125855Y-780565D01*
X2127064Y-778752D01*
X2127669Y-775728D01*
Y-773914D01*
X2127064Y-770891D01*
X2125855Y-769077D01*
X2124041Y-768473D01*
X2122832D01*
X2138371Y-772705D02*
X2137766Y-774519D01*
X2136557Y-775728D01*
X2134743Y-776333D01*
X2134138D01*
X2132325Y-775728D01*
X2131115Y-774519D01*
X2130511Y-772705D01*
Y-772101D01*
X2131115Y-770287D01*
X2132325Y-769077D01*
X2134138Y-768473D01*
X2134743D01*
X2136557Y-769077D01*
X2137766Y-770287D01*
X2138371Y-772705D01*
Y-775728D01*
X2137766Y-778752D01*
X2136557Y-780565D01*
X2134743Y-781170D01*
X2133534D01*
X2131720Y-780565D01*
X2131115Y-779356D01*
X2143026Y-780565D02*
X2142422Y-781170D01*
X2141817Y-780565D01*
X2142422Y-779961D01*
X2143026Y-780565D01*
Y-781775D01*
X2142422Y-782984D01*
X2141817Y-783589D01*
X2163040Y-772705D02*
Y-782379D01*
X2162435Y-784193D01*
X2161831Y-784798D01*
X2160621Y-785402D01*
X2158807D01*
X2157598Y-784798D01*
X2163040Y-774519D02*
X2161831Y-773310D01*
X2160621Y-772705D01*
X2158807D01*
X2157598Y-773310D01*
X2156389Y-774519D01*
X2155784Y-776333D01*
Y-777542D01*
X2156389Y-779356D01*
X2157598Y-780565D01*
X2158807Y-781170D01*
X2160621D01*
X2161831Y-780565D01*
X2163040Y-779356D01*
X2166426Y-772705D02*
Y-781170D01*
Y-776333D02*
X2167030Y-774519D01*
X2168240Y-773310D01*
X2169449Y-772705D01*
X2171263D01*
X2179667D02*
Y-781170D01*
Y-774519D02*
X2178458Y-773310D01*
X2177249Y-772705D01*
X2175435D01*
X2174225Y-773310D01*
X2173016Y-774519D01*
X2172412Y-776333D01*
Y-777542D01*
X2173016Y-779356D01*
X2174225Y-780565D01*
X2175435Y-781170D01*
X2177249D01*
X2178458Y-780565D01*
X2179667Y-779356D01*
X2183053Y-772705D02*
Y-781170D01*
Y-775124D02*
X2184867Y-773310D01*
X2186076Y-772705D01*
X2187890D01*
X2189099Y-773310D01*
X2189704Y-775124D01*
Y-781170D01*
Y-775124D02*
X2191518Y-773310D01*
X2192727Y-772705D01*
X2194541D01*
X2195750Y-773310D01*
X2196355Y-775124D01*
Y-781170D01*
X2022705Y-809596D02*
Y-808991D01*
X2023309Y-807782D01*
X2023914Y-807177D01*
X2025123Y-806573D01*
X2027542D01*
X2028751Y-807177D01*
X2029356Y-807782D01*
X2029960Y-808991D01*
Y-810201D01*
X2029356Y-811410D01*
X2028146Y-813224D01*
X2022100Y-819270D01*
X2030565D01*
X2037034Y-806573D02*
X2035220Y-807177D01*
X2034011Y-808991D01*
X2033407Y-812014D01*
Y-813828D01*
X2034011Y-816852D01*
X2035220Y-818665D01*
X2037034Y-819270D01*
X2038244D01*
X2040058Y-818665D01*
X2041267Y-816852D01*
X2041871Y-813828D01*
Y-812014D01*
X2041267Y-808991D01*
X2040058Y-807177D01*
X2038244Y-806573D01*
X2037034D01*
X2045318Y-809596D02*
Y-808991D01*
X2045923Y-807782D01*
X2046527Y-807177D01*
X2047736Y-806573D01*
X2050155D01*
X2051364Y-807177D01*
X2051969Y-807782D01*
X2052574Y-808991D01*
Y-810201D01*
X2051969Y-811410D01*
X2050760Y-813224D01*
X2044713Y-819270D01*
X2053178D01*
X2057229Y-806573D02*
X2063880D01*
X2060252Y-811410D01*
X2062066D01*
X2063275Y-812014D01*
X2063880Y-812619D01*
X2064485Y-814433D01*
Y-815642D01*
X2063880Y-817456D01*
X2062671Y-818665D01*
X2060857Y-819270D01*
X2059043D01*
X2057229Y-818665D01*
X2056624Y-818061D01*
X2056020Y-816852D01*
X2067327Y-813828D02*
X2078210D01*
X2085586Y-806573D02*
X2083772Y-807177D01*
X2082563Y-808991D01*
X2081959Y-812014D01*
Y-813828D01*
X2082563Y-816852D01*
X2083772Y-818665D01*
X2085586Y-819270D01*
X2086796D01*
X2088610Y-818665D01*
X2089819Y-816852D01*
X2090423Y-813828D01*
Y-812014D01*
X2089819Y-808991D01*
X2088610Y-807177D01*
X2086796Y-806573D01*
X2085586D01*
X2094474D02*
X2101125D01*
X2097498Y-811410D01*
X2099312D01*
X2100521Y-812014D01*
X2101125Y-812619D01*
X2101730Y-814433D01*
Y-815642D01*
X2101125Y-817456D01*
X2099916Y-818665D01*
X2098102Y-819270D01*
X2096288D01*
X2094474Y-818665D01*
X2093870Y-818061D01*
X2093265Y-816852D01*
X2104572Y-813828D02*
X2115455D01*
X2122832Y-806573D02*
X2121018Y-807177D01*
X2119809Y-808991D01*
X2119204Y-812014D01*
Y-813828D01*
X2119809Y-816852D01*
X2121018Y-818665D01*
X2122832Y-819270D01*
X2124041D01*
X2125855Y-818665D01*
X2127064Y-816852D01*
X2127669Y-813828D01*
Y-812014D01*
X2127064Y-808991D01*
X2125855Y-807177D01*
X2124041Y-806573D01*
X2122832D01*
X2138371Y-810805D02*
X2137766Y-812619D01*
X2136557Y-813828D01*
X2134743Y-814433D01*
X2134138D01*
X2132325Y-813828D01*
X2131115Y-812619D01*
X2130511Y-810805D01*
Y-810201D01*
X2131115Y-808387D01*
X2132325Y-807177D01*
X2134138Y-806573D01*
X2134743D01*
X2136557Y-807177D01*
X2137766Y-808387D01*
X2138371Y-810805D01*
Y-813828D01*
X2137766Y-816852D01*
X2136557Y-818665D01*
X2134743Y-819270D01*
X2133534D01*
X2131720Y-818665D01*
X2131115Y-817456D01*
X2143026Y-818665D02*
X2142422Y-819270D01*
X2141817Y-818665D01*
X2142422Y-818061D01*
X2143026Y-818665D01*
Y-819875D01*
X2142422Y-821084D01*
X2141817Y-821689D01*
X2163040Y-810805D02*
Y-820479D01*
X2162435Y-822293D01*
X2161831Y-822898D01*
X2160621Y-823502D01*
X2158807D01*
X2157598Y-822898D01*
X2163040Y-812619D02*
X2161831Y-811410D01*
X2160621Y-810805D01*
X2158807D01*
X2157598Y-811410D01*
X2156389Y-812619D01*
X2155784Y-814433D01*
Y-815642D01*
X2156389Y-817456D01*
X2157598Y-818665D01*
X2158807Y-819270D01*
X2160621D01*
X2161831Y-818665D01*
X2163040Y-817456D01*
X2166426Y-810805D02*
Y-819270D01*
Y-814433D02*
X2167030Y-812619D01*
X2168240Y-811410D01*
X2169449Y-810805D01*
X2171263D01*
X2179667D02*
Y-819270D01*
Y-812619D02*
X2178458Y-811410D01*
X2177249Y-810805D01*
X2175435D01*
X2174225Y-811410D01*
X2173016Y-812619D01*
X2172412Y-814433D01*
Y-815642D01*
X2173016Y-817456D01*
X2174225Y-818665D01*
X2175435Y-819270D01*
X2177249D01*
X2178458Y-818665D01*
X2179667Y-817456D01*
X2183053Y-810805D02*
Y-819270D01*
Y-813224D02*
X2184867Y-811410D01*
X2186076Y-810805D01*
X2187890D01*
X2189099Y-811410D01*
X2189704Y-813224D01*
Y-819270D01*
Y-813224D02*
X2191518Y-811410D01*
X2192727Y-810805D01*
X2194541D01*
X2195750Y-811410D01*
X2196355Y-813224D01*
Y-819270D01*
X2022100Y-851928D02*
X2032983D01*
X2575834Y-935000D02*
X2570997Y-922303D01*
X2566160Y-935000D01*
X2567974Y-930768D02*
X2574020D01*
X2578797Y-922303D02*
Y-935000D01*
X2583271Y-922303D02*
Y-932581D01*
X2583876Y-934395D01*
X2585085Y-935000D01*
X2586294D01*
X2581457Y-926535D02*
X2585690D01*
X2589317Y-922303D02*
X2589922Y-922907D01*
X2590527Y-922303D01*
X2589922Y-921698D01*
X2589317Y-922303D01*
X2589922Y-926535D02*
Y-935000D01*
X2592764Y-926535D02*
Y-932581D01*
X2593369Y-934395D01*
X2594578Y-935000D01*
X2596392D01*
X2597601Y-934395D01*
X2599415Y-932581D01*
Y-926535D02*
Y-935000D01*
X2602740Y-926535D02*
Y-935000D01*
Y-928954D02*
X2604554Y-927140D01*
X2605764Y-926535D01*
X2607577D01*
X2608787Y-927140D01*
X2609391Y-928954D01*
Y-935000D01*
Y-928954D02*
X2611205Y-927140D01*
X2612415Y-926535D01*
X2614228D01*
X2615438Y-927140D01*
X2616042Y-928954D01*
Y-935000D01*
X2630009Y-926535D02*
X2633637Y-935000D01*
X2637265Y-926535D02*
X2633637Y-935000D01*
X2639320Y-930163D02*
X2646576D01*
Y-928954D01*
X2645971Y-927744D01*
X2645367Y-927140D01*
X2644158Y-926535D01*
X2642344D01*
X2641134Y-927140D01*
X2639925Y-928349D01*
X2639320Y-930163D01*
Y-931372D01*
X2639925Y-933186D01*
X2641134Y-934395D01*
X2642344Y-935000D01*
X2644158D01*
X2645367Y-934395D01*
X2646576Y-933186D01*
X2649297Y-926535D02*
Y-935000D01*
Y-930163D02*
X2649902Y-928349D01*
X2651111Y-927140D01*
X2652320Y-926535D01*
X2654134D01*
X2661934Y-928349D02*
X2661329Y-927140D01*
X2659515Y-926535D01*
X2657701D01*
X2655887Y-927140D01*
X2655283Y-928349D01*
X2655887Y-929558D01*
X2657097Y-930163D01*
X2660120Y-930768D01*
X2661329Y-931372D01*
X2661934Y-932581D01*
Y-933186D01*
X2661329Y-934395D01*
X2659515Y-935000D01*
X2657701D01*
X2655887Y-934395D01*
X2655283Y-933186D01*
X2665804Y-922303D02*
X2666408Y-922907D01*
X2667013Y-922303D01*
X2666408Y-921698D01*
X2665804Y-922303D01*
X2666408Y-926535D02*
Y-935000D01*
X2672273Y-926535D02*
X2671064Y-927140D01*
X2669854Y-928349D01*
X2669250Y-930163D01*
Y-931372D01*
X2669854Y-933186D01*
X2671064Y-934395D01*
X2672273Y-935000D01*
X2674087D01*
X2675296Y-934395D01*
X2676505Y-933186D01*
X2677110Y-931372D01*
Y-930163D01*
X2676505Y-928349D01*
X2675296Y-927140D01*
X2674087Y-926535D01*
X2672273D01*
X2679891D02*
Y-935000D01*
Y-928954D02*
X2681705Y-927140D01*
X2682914Y-926535D01*
X2684728D01*
X2685938Y-927140D01*
X2686542Y-928954D01*
Y-935000D01*
X2690472Y-926535D02*
X2689868Y-927140D01*
X2690472Y-927744D01*
X2691077Y-927140D01*
X2690472Y-926535D01*
Y-933791D02*
X2689868Y-934395D01*
X2690472Y-935000D01*
X2691077Y-934395D01*
X2690472Y-933791D01*
X2704439Y-925326D02*
Y-924721D01*
X2705044Y-923512D01*
X2705649Y-922907D01*
X2706858Y-922303D01*
X2709276D01*
X2710486Y-922907D01*
X2711090Y-923512D01*
X2711695Y-924721D01*
Y-925930D01*
X2711090Y-927140D01*
X2709881Y-928954D01*
X2703835Y-935000D01*
X2712299D01*
X2715746Y-925326D02*
Y-924721D01*
X2716351Y-923512D01*
X2716955Y-922907D01*
X2718165Y-922303D01*
X2720583D01*
X2721792Y-922907D01*
X2722397Y-923512D01*
X2723002Y-924721D01*
Y-925930D01*
X2722397Y-927140D01*
X2721188Y-928954D01*
X2715141Y-935000D01*
X2723606D01*
X2727053Y-933791D02*
X2726448Y-934395D01*
X2727053Y-935000D01*
X2727657Y-934395D01*
X2727053Y-933791D01*
X2730439Y-924721D02*
X2731648Y-924117D01*
X2733462Y-922303D01*
Y-935000D01*
X2739750Y-924721D02*
X2740959Y-924117D01*
X2742773Y-922303D01*
Y-935000D01*
X2749666Y-933791D02*
X2749061Y-934395D01*
X2749666Y-935000D01*
X2750270Y-934395D01*
X2749666Y-933791D01*
X2753052Y-924721D02*
X2754261Y-924117D01*
X2756075Y-922303D01*
Y-935000D01*
X2762968Y-933791D02*
X2762363Y-934395D01*
X2762968Y-935000D01*
X2763572Y-934395D01*
X2762968Y-933791D01*
X2772400Y-922303D02*
X2766354Y-930768D01*
X2775423D01*
X2772400Y-922303D02*
Y-935000D01*
X2778870Y-922303D02*
X2785521D01*
X2781893Y-927140D01*
X2783707D01*
X2784916Y-927744D01*
X2785521Y-928349D01*
X2786125Y-930163D01*
Y-931372D01*
X2785521Y-933186D01*
X2784311Y-934395D01*
X2782497Y-935000D01*
X2780684D01*
X2778870Y-934395D01*
X2778265Y-933791D01*
X2777661Y-932581D01*
D11*
X1912780Y-686560D02*
Y-704336D01*
X1916505Y-686560D02*
Y-704336D01*
Y-686560D02*
X1923276Y-704336D01*
X1930048Y-686560D02*
X1923276Y-704336D01*
X1930048Y-686560D02*
Y-704336D01*
X1941053Y-686560D02*
Y-704336D01*
X1935127Y-686560D02*
X1946978D01*
X1976605Y-704336D02*
X1969833Y-686560D01*
X1963061Y-704336D01*
X1965601Y-698411D02*
X1974066D01*
X1993450Y-690792D02*
X1992603Y-689099D01*
X1990910Y-687406D01*
X1989218Y-686560D01*
X1985832D01*
X1984139Y-687406D01*
X1982446Y-689099D01*
X1981599Y-690792D01*
X1980753Y-693332D01*
Y-697564D01*
X1981599Y-700104D01*
X1982446Y-701797D01*
X1984139Y-703490D01*
X1985832Y-704336D01*
X1989218D01*
X1990910Y-703490D01*
X1992603Y-701797D01*
X1993450Y-700104D01*
Y-697564D01*
X1989218D02*
X1993450D01*
X1999206Y-703490D02*
X1998360Y-704336D01*
X1997513Y-703490D01*
X1998360Y-702643D01*
X1999206Y-703490D01*
Y-705182D01*
X1998360Y-706876D01*
X1997513Y-707722D01*
X2028918Y-689099D02*
X2027225Y-687406D01*
X2024685Y-686560D01*
X2021299D01*
X2018760Y-687406D01*
X2017067Y-689099D01*
Y-690792D01*
X2017913Y-692485D01*
X2018760Y-693332D01*
X2020453Y-694178D01*
X2025532Y-695871D01*
X2027225Y-696718D01*
X2028071Y-697564D01*
X2028918Y-699257D01*
Y-701797D01*
X2027225Y-703490D01*
X2024685Y-704336D01*
X2021299D01*
X2018760Y-703490D01*
X2017067Y-701797D01*
X2032896Y-686560D02*
Y-704336D01*
Y-695871D02*
X2035436Y-693332D01*
X2037129Y-692485D01*
X2039668D01*
X2041361Y-693332D01*
X2042208Y-695871D01*
Y-704336D01*
X2046863Y-697564D02*
X2057021D01*
Y-695871D01*
X2056175Y-694178D01*
X2055328Y-693332D01*
X2053635Y-692485D01*
X2051096D01*
X2049403Y-693332D01*
X2047710Y-695025D01*
X2046863Y-697564D01*
Y-699257D01*
X2047710Y-701797D01*
X2049403Y-703490D01*
X2051096Y-704336D01*
X2053635D01*
X2055328Y-703490D01*
X2057021Y-701797D01*
X2060830Y-692485D02*
Y-704336D01*
Y-697564D02*
X2061677Y-695025D01*
X2063370Y-693332D01*
X2065063Y-692485D01*
X2067602D01*
X2070903Y-686560D02*
X2071750Y-687406D01*
X2072596Y-686560D01*
X2071750Y-685713D01*
X2070903Y-686560D01*
X2071750Y-692485D02*
Y-704336D01*
X2082500Y-686560D02*
X2080807D01*
X2079114Y-687406D01*
X2078268Y-689946D01*
Y-704336D01*
X2075728Y-692485D02*
X2081654D01*
X2091812Y-686560D02*
X2090119D01*
X2088426Y-687406D01*
X2087579Y-689946D01*
Y-704336D01*
X2085040Y-692485D02*
X2090965D01*
X2120169Y-689099D02*
X2118476Y-687406D01*
X2115936Y-686560D01*
X2112551D01*
X2110011Y-687406D01*
X2108318Y-689099D01*
Y-690792D01*
X2109164Y-692485D01*
X2110011Y-693332D01*
X2111704Y-694178D01*
X2116783Y-695871D01*
X2118476Y-696718D01*
X2119322Y-697564D01*
X2120169Y-699257D01*
Y-701797D01*
X2118476Y-703490D01*
X2115936Y-704336D01*
X2112551D01*
X2110011Y-703490D01*
X2108318Y-701797D01*
X2126687Y-686560D02*
Y-700950D01*
X2127533Y-703490D01*
X2129226Y-704336D01*
X2130919D01*
X2124147Y-692485D02*
X2130073D01*
X2143616D02*
Y-704336D01*
Y-695025D02*
X2141924Y-693332D01*
X2140231Y-692485D01*
X2137691D01*
X2135998Y-693332D01*
X2134305Y-695025D01*
X2133459Y-697564D01*
Y-699257D01*
X2134305Y-701797D01*
X2135998Y-703490D01*
X2137691Y-704336D01*
X2140231D01*
X2141924Y-703490D01*
X2143616Y-701797D01*
X2148357Y-692485D02*
Y-704336D01*
Y-697564D02*
X2149203Y-695025D01*
X2150896Y-693332D01*
X2152589Y-692485D01*
X2155129D01*
X2158430Y-703490D02*
X2157583Y-704336D01*
X2156737Y-703490D01*
X2157583Y-702643D01*
X2158430Y-703490D01*
Y-705182D01*
X2157583Y-706876D01*
X2156737Y-707722D01*
X2189835Y-704336D02*
X2183063Y-686560D01*
X2176291Y-704336D01*
X2178830Y-698411D02*
X2187295D01*
X2193982Y-686560D02*
Y-704336D01*
Y-686560D02*
X2199908D01*
X2202447Y-687406D01*
X2204140Y-689099D01*
X2204987Y-690792D01*
X2205833Y-693332D01*
Y-697564D01*
X2204987Y-700104D01*
X2204140Y-701797D01*
X2202447Y-703490D01*
X2199908Y-704336D01*
X2193982D01*
X2235629Y-689099D02*
X2233936Y-687406D01*
X2231397Y-686560D01*
X2228011D01*
X2225472Y-687406D01*
X2223779Y-689099D01*
Y-690792D01*
X2224625Y-692485D01*
X2225472Y-693332D01*
X2227165Y-694178D01*
X2232243Y-695871D01*
X2233936Y-696718D01*
X2234783Y-697564D01*
X2235629Y-699257D01*
Y-701797D01*
X2233936Y-703490D01*
X2231397Y-704336D01*
X2228011D01*
X2225472Y-703490D01*
X2223779Y-701797D01*
X2239608Y-686560D02*
Y-704336D01*
Y-695871D02*
X2242147Y-693332D01*
X2243840Y-692485D01*
X2246380D01*
X2248073Y-693332D01*
X2248919Y-695871D01*
Y-704336D01*
X2253575Y-697564D02*
X2263733D01*
Y-695871D01*
X2262886Y-694178D01*
X2262040Y-693332D01*
X2260347Y-692485D01*
X2257807D01*
X2256114Y-693332D01*
X2254421Y-695025D01*
X2253575Y-697564D01*
Y-699257D01*
X2254421Y-701797D01*
X2256114Y-703490D01*
X2257807Y-704336D01*
X2260347D01*
X2262040Y-703490D01*
X2263733Y-701797D01*
X2267542Y-692485D02*
Y-704336D01*
Y-697564D02*
X2268388Y-695025D01*
X2270081Y-693332D01*
X2271774Y-692485D01*
X2274314D01*
X2277615Y-686560D02*
X2278462Y-687406D01*
X2279308Y-686560D01*
X2278462Y-685713D01*
X2277615Y-686560D01*
X2278462Y-692485D02*
Y-704336D01*
X2289212Y-686560D02*
X2287519D01*
X2285826Y-687406D01*
X2284980Y-689946D01*
Y-704336D01*
X2282440Y-692485D02*
X2288365D01*
X2298523Y-686560D02*
X2296830D01*
X2295137Y-687406D01*
X2294291Y-689946D01*
Y-704336D01*
X2291751Y-692485D02*
X2297677D01*
X2326880Y-689099D02*
X2325188Y-687406D01*
X2322648Y-686560D01*
X2319262D01*
X2316723Y-687406D01*
X2315030Y-689099D01*
Y-690792D01*
X2315876Y-692485D01*
X2316723Y-693332D01*
X2318416Y-694178D01*
X2323495Y-695871D01*
X2325188Y-696718D01*
X2326034Y-697564D01*
X2326880Y-699257D01*
Y-701797D01*
X2325188Y-703490D01*
X2322648Y-704336D01*
X2319262D01*
X2316723Y-703490D01*
X2315030Y-701797D01*
X2333398Y-686560D02*
Y-700950D01*
X2334245Y-703490D01*
X2335938Y-704336D01*
X2337631D01*
X2330859Y-692485D02*
X2336784D01*
X2350328D02*
Y-704336D01*
Y-695025D02*
X2348635Y-693332D01*
X2346942Y-692485D01*
X2344403D01*
X2342710Y-693332D01*
X2341017Y-695025D01*
X2340170Y-697564D01*
Y-699257D01*
X2341017Y-701797D01*
X2342710Y-703490D01*
X2344403Y-704336D01*
X2346942D01*
X2348635Y-703490D01*
X2350328Y-701797D01*
X2355069Y-692485D02*
Y-704336D01*
Y-697564D02*
X2355915Y-695025D01*
X2357608Y-693332D01*
X2359301Y-692485D01*
X2361840D01*
D12*
X166891Y830000D02*
X181891Y835000D01*
X166891Y830000D02*
X181891Y825000D01*
X818109D02*
X833109Y830000D01*
X818109Y835000D02*
X833109Y830000D01*
X166891D02*
X458261D01*
X533739D02*
X833109D01*
X166891Y528000D02*
Y832000D01*
X833109Y528000D02*
Y832000D01*
X75000Y-15000D02*
X80000Y-30000D01*
X85000Y-15000D01*
X80000Y730000D02*
X85000Y715000D01*
X75000D02*
X80000Y730000D01*
Y-30000D02*
Y308261D01*
Y383739D02*
Y730000D01*
X78000Y-30000D02*
X497000D01*
X78000Y730000D02*
X497000D01*
X472258Y835498D02*
X467259Y832998D01*
X462261Y828000D01*
Y823002D01*
X464760Y820502D01*
X469758D01*
X472258Y823002D01*
Y825501D01*
X469758Y828000D01*
X462261D01*
X487253Y835498D02*
X482254Y832998D01*
X477256Y828000D01*
Y823002D01*
X479755Y820502D01*
X484754D01*
X487253Y823002D01*
Y825501D01*
X484754Y828000D01*
X477256D01*
X492251Y820502D02*
Y823002D01*
X494750D01*
Y820502D01*
X492251D01*
X514744Y835498D02*
X509746Y832998D01*
X504747Y828000D01*
Y823002D01*
X507246Y820502D01*
X512245D01*
X514744Y823002D01*
Y825501D01*
X512245Y828000D01*
X504747D01*
X529739Y820502D02*
X519742D01*
X529739Y830499D01*
Y832998D01*
X527240Y835498D01*
X522242D01*
X519742Y832998D01*
X74502Y312261D02*
Y322258D01*
X77002D01*
X86998Y312261D01*
X89498D01*
X74502Y337253D02*
X77002Y332254D01*
X82000Y327256D01*
X86998D01*
X89498Y329755D01*
Y334754D01*
X86998Y337253D01*
X84499D01*
X82000Y334754D01*
Y327256D01*
X89498Y342251D02*
X86998D01*
Y344750D01*
X89498D01*
Y342251D01*
X77002Y354747D02*
X74502Y357246D01*
Y362245D01*
X77002Y364744D01*
X86998D01*
X89498Y362245D01*
Y357246D01*
X86998Y354747D01*
X77002D01*
Y369742D02*
X74502Y372242D01*
Y377240D01*
X77002Y379739D01*
X86998D01*
X89498Y377240D01*
Y372242D01*
X86998Y369742D01*
X77002D01*
X2446180Y-686974D02*
Y-704970D01*
Y-686974D02*
X2453036Y-704970D01*
X2459891Y-686974D02*
X2453036Y-704970D01*
X2459891Y-686974D02*
Y-704970D01*
X2465033Y-698114D02*
X2475317D01*
Y-696400D01*
X2474460Y-694687D01*
X2473603Y-693829D01*
X2471889Y-692973D01*
X2469318D01*
X2467604Y-693829D01*
X2465890Y-695544D01*
X2465033Y-698114D01*
Y-699828D01*
X2465890Y-702399D01*
X2467604Y-704113D01*
X2469318Y-704970D01*
X2471889D01*
X2473603Y-704113D01*
X2475317Y-702399D01*
X2489456Y-695544D02*
X2487742Y-693829D01*
X2486029Y-692973D01*
X2483458D01*
X2481744Y-693829D01*
X2480030Y-695544D01*
X2479173Y-698114D01*
Y-699828D01*
X2480030Y-702399D01*
X2481744Y-704113D01*
X2483458Y-704970D01*
X2486029D01*
X2487742Y-704113D01*
X2489456Y-702399D01*
X2493313Y-686974D02*
Y-704970D01*
Y-696400D02*
X2495884Y-693829D01*
X2497598Y-692973D01*
X2500168D01*
X2501882Y-693829D01*
X2502739Y-696400D01*
Y-704970D01*
X2517736Y-692973D02*
Y-704970D01*
Y-695544D02*
X2516022Y-693829D01*
X2514308Y-692973D01*
X2511737D01*
X2510023Y-693829D01*
X2508309Y-695544D01*
X2507453Y-698114D01*
Y-699828D01*
X2508309Y-702399D01*
X2510023Y-704113D01*
X2511737Y-704970D01*
X2514308D01*
X2516022Y-704113D01*
X2517736Y-702399D01*
X2522535Y-692973D02*
Y-704970D01*
Y-696400D02*
X2525106Y-693829D01*
X2526820Y-692973D01*
X2529391D01*
X2531105Y-693829D01*
X2531962Y-696400D01*
Y-704970D01*
X2538389Y-686974D02*
X2539246Y-687831D01*
X2540103Y-686974D01*
X2539246Y-686117D01*
X2538389Y-686974D01*
X2539246Y-692973D02*
Y-704970D01*
X2553557Y-695544D02*
X2551843Y-693829D01*
X2550129Y-692973D01*
X2547558D01*
X2545844Y-693829D01*
X2544130Y-695544D01*
X2543273Y-698114D01*
Y-699828D01*
X2544130Y-702399D01*
X2545844Y-704113D01*
X2547558Y-704970D01*
X2550129D01*
X2551843Y-704113D01*
X2553557Y-702399D01*
X2567697Y-692973D02*
Y-704970D01*
Y-695544D02*
X2565983Y-693829D01*
X2564269Y-692973D01*
X2561698D01*
X2559984Y-693829D01*
X2558270Y-695544D01*
X2557413Y-698114D01*
Y-699828D01*
X2558270Y-702399D01*
X2559984Y-704113D01*
X2561698Y-704970D01*
X2564269D01*
X2565983Y-704113D01*
X2567697Y-702399D01*
X2572496Y-686974D02*
Y-704970D01*
X2600690Y-686974D02*
Y-704970D01*
Y-695544D02*
X2598976Y-693829D01*
X2597262Y-692973D01*
X2594691D01*
X2592977Y-693829D01*
X2591263Y-695544D01*
X2590406Y-698114D01*
Y-699828D01*
X2591263Y-702399D01*
X2592977Y-704113D01*
X2594691Y-704970D01*
X2597262D01*
X2598976Y-704113D01*
X2600690Y-702399D01*
X2605489Y-692973D02*
Y-704970D01*
Y-698114D02*
X2606346Y-695544D01*
X2608060Y-693829D01*
X2609774Y-692973D01*
X2612344D01*
X2624256D02*
Y-704970D01*
Y-695544D02*
X2622542Y-693829D01*
X2620828Y-692973D01*
X2618257D01*
X2616543Y-693829D01*
X2614829Y-695544D01*
X2613972Y-698114D01*
Y-699828D01*
X2614829Y-702399D01*
X2616543Y-704113D01*
X2618257Y-704970D01*
X2620828D01*
X2622542Y-704113D01*
X2624256Y-702399D01*
X2629055Y-692973D02*
X2632483Y-704970D01*
X2635911Y-692973D02*
X2632483Y-704970D01*
X2635911Y-692973D02*
X2639338Y-704970D01*
X2642766Y-692973D02*
X2639338Y-704970D01*
X2648680Y-686974D02*
X2649536Y-687831D01*
X2650393Y-686974D01*
X2649536Y-686117D01*
X2648680Y-686974D01*
X2649536Y-692973D02*
Y-704970D01*
X2653564Y-692973D02*
Y-704970D01*
Y-696400D02*
X2656135Y-693829D01*
X2657849Y-692973D01*
X2660420D01*
X2662133Y-693829D01*
X2662991Y-696400D01*
Y-704970D01*
X2677987Y-692973D02*
Y-706684D01*
X2677130Y-709255D01*
X2676273Y-710112D01*
X2674560Y-710969D01*
X2671989D01*
X2670275Y-710112D01*
X2677987Y-695544D02*
X2676273Y-693829D01*
X2674560Y-692973D01*
X2671989D01*
X2670275Y-693829D01*
X2668561Y-695544D01*
X2667704Y-698114D01*
Y-699828D01*
X2668561Y-702399D01*
X2670275Y-704113D01*
X2671989Y-704970D01*
X2674560D01*
X2676273Y-704113D01*
X2677987Y-702399D01*
D13*
X2426998Y-746338D02*
X2428812Y-748152D01*
X2430626Y-746338D01*
X2428812Y-744524D01*
X2426998Y-746338D01*
X2428812Y-759035D02*
Y-784430D01*
X2437337Y-759035D02*
Y-784430D01*
Y-766291D02*
X2442779Y-760849D01*
X2446407Y-759035D01*
X2451848D01*
X2455476Y-760849D01*
X2457290Y-766291D01*
Y-784430D01*
Y-766291D02*
X2462731Y-760849D01*
X2466359Y-759035D01*
X2471801D01*
X2475429Y-760849D01*
X2477243Y-766291D01*
Y-784430D01*
X2494656Y-746338D02*
Y-777174D01*
X2496470Y-782616D01*
X2500098Y-784430D01*
X2503726D01*
X2489214Y-759035D02*
X2501912D01*
X2510981Y-780802D02*
X2509167Y-782616D01*
X2510981Y-784430D01*
X2512795Y-782616D01*
X2510981Y-780802D01*
D14*
X2692080Y-968678D02*
X2695043Y-965716D01*
X2700968D01*
X2703930Y-968678D01*
Y-971640D01*
X2700968Y-974603D01*
X2703930Y-977565D01*
Y-980528D01*
X2700968Y-983490D01*
X2695043D01*
X2692080Y-980528D01*
Y-977565D01*
X2695043Y-974603D01*
X2692080Y-971640D01*
Y-968678D01*
X2695043Y-974603D02*
X2700968D01*
X2199955Y-965716D02*
X2211805D01*
Y-968678D01*
X2199955Y-980528D01*
Y-983490D01*
X1719680Y-965716D02*
X1713755Y-968678D01*
X1707831Y-974603D01*
Y-980528D01*
X1710793Y-983490D01*
X1716718D01*
X1719680Y-980528D01*
Y-977565D01*
X1716718Y-974603D01*
X1707831D01*
X1227555Y-965716D02*
X1215705D01*
Y-974603D01*
X1221630Y-971640D01*
X1224593D01*
X1227555Y-974603D01*
Y-980528D01*
X1224593Y-983490D01*
X1218668D01*
X1215705Y-980528D01*
X732045Y-965714D02*
X723580Y-977565D01*
X736278D01*
X732045Y-965714D02*
Y-983490D01*
X233148Y-965714D02*
X242460D01*
X237381Y-972486D01*
X239920D01*
X241613Y-973332D01*
X242460Y-974179D01*
X243306Y-976718D01*
Y-978411D01*
X242460Y-980950D01*
X240767Y-982644D01*
X238227Y-983490D01*
X235688D01*
X233148Y-982644D01*
X232302Y-981797D01*
X231455Y-980104D01*
X-259823Y-969946D02*
Y-969100D01*
X-258976Y-967407D01*
X-258130Y-966560D01*
X-256437Y-965714D01*
X-253051D01*
X-251358Y-966560D01*
X-250512Y-967407D01*
X-249665Y-969100D01*
Y-970793D01*
X-250512Y-972486D01*
X-252205Y-975025D01*
X-260669Y-983490D01*
X-248819D01*
X-752794Y-969100D02*
X-751102Y-968253D01*
X-748562Y-965714D01*
Y-983490D01*
X2692080Y1799922D02*
X2695043Y1802884D01*
X2700968D01*
X2703930Y1799922D01*
Y1796960D01*
X2700968Y1793997D01*
X2703930Y1791035D01*
Y1788072D01*
X2700968Y1785110D01*
X2695043D01*
X2692080Y1788072D01*
Y1791035D01*
X2695043Y1793997D01*
X2692080Y1796960D01*
Y1799922D01*
X2695043Y1793997D02*
X2700968D01*
X2199955Y1802884D02*
X2211805D01*
Y1799922D01*
X2199955Y1788072D01*
Y1785110D01*
X1719680Y1802884D02*
X1713755Y1799922D01*
X1707831Y1793997D01*
Y1788072D01*
X1710793Y1785110D01*
X1716718D01*
X1719680Y1788072D01*
Y1791035D01*
X1716718Y1793997D01*
X1707831D01*
X1227555Y1802884D02*
X1215705D01*
Y1793997D01*
X1221630Y1796960D01*
X1224593D01*
X1227555Y1793997D01*
Y1788072D01*
X1224593Y1785110D01*
X1218668D01*
X1215705Y1788072D01*
X732045Y1802886D02*
X723580Y1791035D01*
X736278D01*
X732045Y1802886D02*
Y1785110D01*
X233148Y1802886D02*
X242460D01*
X237381Y1796114D01*
X239920D01*
X241613Y1795268D01*
X242460Y1794421D01*
X243306Y1791882D01*
Y1790189D01*
X242460Y1787650D01*
X240767Y1785957D01*
X238227Y1785110D01*
X235688D01*
X233148Y1785957D01*
X232302Y1786803D01*
X231455Y1788496D01*
X-259823Y1798654D02*
Y1799500D01*
X-258976Y1801193D01*
X-258130Y1802040D01*
X-256437Y1802886D01*
X-253051D01*
X-251358Y1802040D01*
X-250512Y1801193D01*
X-249665Y1799500D01*
Y1797807D01*
X-250512Y1796114D01*
X-252205Y1793575D01*
X-260669Y1785110D01*
X-248819D01*
X-752794Y1799500D02*
X-751102Y1800347D01*
X-748562Y1802886D01*
Y1785110D01*
X-980950Y-114941D02*
Y-132717D01*
Y-114941D02*
X-975025D01*
X-972485Y-115787D01*
X-970792Y-117480D01*
X-969946Y-119173D01*
X-969099Y-121713D01*
Y-125945D01*
X-969946Y-128485D01*
X-970792Y-130177D01*
X-972485Y-131870D01*
X-975025Y-132717D01*
X-980950D01*
X-968253Y424387D02*
X-969099Y426080D01*
X-970792Y427773D01*
X-972485Y428619D01*
X-975871D01*
X-977564Y427773D01*
X-979257Y426080D01*
X-980104Y424387D01*
X-980950Y421847D01*
Y417615D01*
X-980104Y415075D01*
X-979257Y413382D01*
X-977564Y411689D01*
X-975871Y410843D01*
X-972485D01*
X-970792Y411689D01*
X-969099Y413382D01*
X-968253Y415075D01*
X-980950Y972179D02*
Y954403D01*
Y972179D02*
X-973332D01*
X-970792Y971333D01*
X-969946Y970486D01*
X-969099Y968793D01*
Y967100D01*
X-969946Y965407D01*
X-970792Y964561D01*
X-973332Y963714D01*
X-980950D02*
X-973332D01*
X-970792Y962868D01*
X-969946Y962021D01*
X-969099Y960328D01*
Y957789D01*
X-969946Y956096D01*
X-970792Y955249D01*
X-973332Y954403D01*
X-980950D01*
X-967406Y1497963D02*
X-974178Y1515739D01*
X-980950Y1497963D01*
X-978410Y1503888D02*
X-969946D01*
Y-658501D02*
X-980950D01*
Y-676277D01*
X-969946D01*
X-980950Y-666966D02*
X-974178D01*
X2916254Y-658501D02*
X2905250D01*
Y-676277D01*
X2916254D01*
X2905250Y-666966D02*
X2912022D01*
X2918794Y1497963D02*
X2912022Y1515739D01*
X2905250Y1497963D01*
X2907790Y1503888D02*
X2916254D01*
X2905250Y972179D02*
Y954403D01*
Y972179D02*
X2912868D01*
X2915408Y971333D01*
X2916254Y970486D01*
X2917101Y968793D01*
Y967100D01*
X2916254Y965407D01*
X2915408Y964561D01*
X2912868Y963714D01*
X2905250D02*
X2912868D01*
X2915408Y962868D01*
X2916254Y962021D01*
X2917101Y960328D01*
Y957789D01*
X2916254Y956096D01*
X2915408Y955249D01*
X2912868Y954403D01*
X2905250D01*
X2917947Y424387D02*
X2917101Y426080D01*
X2915408Y427773D01*
X2913715Y428619D01*
X2910329D01*
X2908636Y427773D01*
X2906943Y426080D01*
X2906096Y424387D01*
X2905250Y421847D01*
Y417615D01*
X2906096Y415075D01*
X2906943Y413382D01*
X2908636Y411689D01*
X2910329Y410843D01*
X2913715D01*
X2915408Y411689D01*
X2917101Y413382D01*
X2917947Y415075D01*
X2905250Y-114941D02*
Y-132717D01*
Y-114941D02*
X2911176D01*
X2913715Y-115787D01*
X2915408Y-117480D01*
X2916254Y-119173D01*
X2917101Y-121713D01*
Y-125945D01*
X2916254Y-128485D01*
X2915408Y-130177D01*
X2913715Y-131870D01*
X2911176Y-132717D01*
X2905250D01*
M02*
